<?xml version="1.0" standalone="no"?>
<!DOCTYPE svg PUBLIC "-//W3C//DTD SVG 1.1//EN" "http://www.w3.org/Graphics/SVG/1.1/DTD/svg11.dtd" >
<svg>
<metadata>
Created by FontForge 20090914 at Sun Sep 18 12:05:24 2022
 By www-data
Sealed in blood &#194;&#169; (sealed in blood). &#60;2008&#62;. All Rights Reserved
</metadata>
<defs>
<font id="o-wee-ental" horiz-adv-x="1366" >
  <font-face 
    font-family="o-wee-ental"
    font-weight="400"
    font-stretch="normal"
    units-per-em="2048"
    panose-1="2 0 0 0 0 0 0 0 0 0"
    ascent="1638"
    descent="-410"
    x-height="1794"
    cap-height="1830"
    bbox="-0.00292969 -418.902 6199 1857.68"
    underline-thickness="150"
    underline-position="-142"
    unicode-range="U+0020-U+007E"
  />
<missing-glyph horiz-adv-x="1536" 
d="M256 0v1280h1024v-1280h-1024zM288 32h960v1216h-960v-1216z" />
    <glyph glyph-name=".notdef" horiz-adv-x="1536" 
d="M256 0v1280h1024v-1280h-1024zM288 32h960v1216h-960v-1216z" />
    <glyph glyph-name="space" unicode=" " horiz-adv-x="569" 
 />
    <glyph glyph-name="space" unicode="&#xa0;" horiz-adv-x="569" 
 />
    <glyph glyph-name="exclam" unicode="!" horiz-adv-x="472" 
d="M79 1829c47.333 -13.333 132.171 -8.00391 254.504 15.9961s146.166 -38.5 71.499 -187.5s-127.834 -319.667 -159.501 -512s-33.5 -377.666 -5.5 -555.999s12.167 -195.666 -47.5 -51.999s-103.167 272.834 -130.5 387.501s-35.333 240 -24 376
s9.16602 261.333 -6.50098 376s0.166016 165.334 47.499 152.001zM234.005 253.496c47.333 -7.66699 96.666 4.50195 147.999 36.502s73 17.167 65 -44.5s-51.5 -124.334 -130.5 -188.001s-106.667 -66.334 -83 -8.00098s17.834 108.833 -17.499 151.5
s-29.333 60.167 18 52.5z" />
    <glyph glyph-name="quotedbl" unicode="&#x22;" horiz-adv-x="585" 
d="M147 1722.5c47.333 15 52.333 -25 15 -120s-61 -102.5 -71 -22.5s8.66699 127.5 56 142.5zM409 1723c52.667 0 61.5 -39.833 26.5 -119.5s-61.333 -79.667 -79 0s-0.166992 119.5 52.5 119.5z" />
    <glyph glyph-name="numbersign" unicode="#" horiz-adv-x="1139" 
 />
    <glyph glyph-name="dollar" unicode="$" horiz-adv-x="6229" 
d="M327 1813c104 0 167.999 -94.665 191.999 -283.998v-120c0 -70.667 -32 -158 -96 -262l48 22v-11l-24 -77l24 -54v-11l-160 -22c-130.667 0 -223.667 72.667 -279 218c-21.333 56 -32 114.333 -32 175c0 84.667 45.333 172 136 262h8v-22c-64 -120 -96 -207.333 -96 -262
c0 -112.667 58.333 -207.334 175 -284.001l64 -11c86 0 150 113 192 339c-12 204 -57.333 306 -136 306h-88c-73.333 0 -139.666 -47.333 -198.999 -142l-8 -11h-8c-26.667 11.333 -40 36.666 -40 75.999c29.333 64.667 88 112 176 142zM5106 1813
c127.334 -35.333 190.999 -122.667 190.999 -262l8 -55c0 -131.333 -31.666 -244 -95 -338h8l32 11v-11l-24 -88l24 -32v-11c0 -22 -53.334 -33 -160 -33c-135.334 0 -231 80 -287 240l-24 131c0 102 48 196.667 144 284h7c-50 -101.333 -81.666 -185 -95 -251v-55
c0 -92 50.334 -175.667 151 -251l64 -22h24c39.334 0 76.667 36.667 112 110c22.666 0 46.666 72.667 72 218v22c0 170 -42.666 268.333 -128 295h-96c-72.666 0 -141.666 -51 -207 -153c-14 0 -30 21.667 -48 65c67.334 124 176.334 186 327.001 186zM1300 1802
c26.667 0 42.667 -54.667 48 -164h8c0 98 5.33301 152.667 16 164l32 -11l40 11l8 -11v-11c-32 -116 -48 -250.667 -48 -404v-87c0 -74.667 16 -165.667 48 -273c-50 24.667 -82 181 -96 469h-8c-4 -252 -33 -412 -87 -480l-56 11l87 316c21.333 128.667 32 230.667 32 306z
M2026 1802l8 -11.001h8l56 11l8 -11v-11c-37.333 -128 -56 -284.333 -56 -469c0 -73.333 18.667 -171.666 56 -294.999h-8c-58.667 62 -88 244 -88 546v207zM2481 1802l8 -11l56 11h24v-11l-72 -513v-120l8 -110h-16l-24 208l8 535zM3143 1802h24
c87.333 0 148.666 -43.667 184 -131v-11c-39.333 36.667 -79.333 58.667 -120 66c-90.667 0 -178.334 -40.333 -263 -121h-16l-8 44c0 78 10.667 125.333 32 142l8 -11h8zM3606 1802h8l16 -22c0 -26.667 -50.667 -154 -152 -382c-68.667 -186.667 -103 -314 -103 -382h-16
v11c0 106 55.667 342.667 167 710c24.667 43.333 51.334 65 80 65zM3829 1802l40 -22l64 22c-53.333 -170 -80 -337.333 -80 -502c0 -68.667 10.667 -159.667 32 -273v-11h-8c-47.333 150.667 -71 289 -71 415l16 306v43l7 11v11zM4428 1802l24 0.000976562l16 -22v-11
c-32 -158.667 -53.334 -311.334 -64 -458.001l32 -306c-42.666 78 -64 190.667 -64 338v88l16 295l-8 11v10c3.33398 36.667 19.334 55 48 55zM5329 1802l8 -11l56 11h8c10.666 0 16 -11 16 -33c-48 -240.667 -72 -411.667 -72 -513v-218h-8l-32 251c8 342 16 513 24 513z
M5992 1802h8c92 0 158.334 -43.667 199 -131v-11c-48 42 -90.666 64 -128 66c-76 0 -166.334 -40.333 -271 -121l-8 11v88c0 40 8 69 24 87l8 -11h16zM2864 1791l32 -11l32 11c10.667 0 16 -11 16 -33c-32 -143.333 -48 -267 -48 -371v-44l48 -305v-22l-8 -11h-8l-80 327
l-8 153zM5720 1791l8 -11l40 11h16v-11l-48 -426l48 -306v-43l-64 229c-16 0 -26.666 62 -32 186v33c6.66602 225.333 17.333 338 32 338zM765.998 1780l8.00195 -0.000976562c22.667 0 46.667 -120 72 -360c41.333 -165.333 91.666 -303.666 150.999 -414.999v-11
c-106.667 98 -186.334 251 -239.001 459l-32 218zM1508 1769c106 -14.667 196.333 -36.333 271 -65v-22l-104 11l-199 -33l-32 22c14 58 35.333 87 64 87zM2154 1769c186 -26.667 279 -55.667 279 -87l-103 11l-200 -33l-32 33c16 50.667 34.667 76 56 76zM4492 1769
c191.334 -21.333 287 -54 287 -98l-88 22c-95.334 0 -167 -18.333 -215 -55l-8 11zM2609 1758c36 -248 89 -415.334 159 -502.001l120 -175c-10.667 -45.333 -24 -70.666 -40 -75.999c-56 0 -130.333 145.667 -223 437c-21.333 141.333 -32 243 -32 305l8 11h8zM5441 1758
c12.666 -14 36.666 -115.668 72 -305.001c22.666 -76.667 94.333 -197 215 -361v-44l-32 -43h-24c-154 212.667 -231 449.334 -231 710.001v43zM3670 1726l8 -0.000976562c85.333 -79.333 128 -243.333 128 -492c-5.33301 -91.333 -16 -167.666 -32 -228.999h-16l8 11v11
l8 153c0 184 -48 340.333 -144 469v22zM3191 1704l8 -32.999c-21.333 -84.667 -32 -150.334 -32 -197.001v-32l16 -208v-22c0 -110.667 -13.333 -179.667 -40 -207l16 164l-48 295l-8 141c10.667 66 40 99 88 99zM6039 1704l8 -11.001
c-20.666 -89.333 -33.666 -176.666 -39 -261.999l23 -175c0 -72 -10.334 -155.667 -31 -251h-8l8 164v21l-40 263l-8 207zM4667 1518h40l64 -22l-8 -65l-184 33l-119 -22h-8v11c85.334 43.333 157 65 215 65zM1763 1474l8 -0.000976562l16 -21l-8 -44l8 -44v-11
c0 -14.667 -8 -22 -24 -22c-63.333 51.333 -143 77 -239 77c-24.667 0 -56.667 -14.667 -96 -44v11c0 56.667 111.667 89.334 335 98.001zM2417 1474l24 -21.001l-8 -55l8 -33l-8 -33c-92 51.333 -177 77 -255 77c-24.667 0 -56.667 -14.667 -96 -44v11
c0 58.667 111.667 91.334 335 98.001zM1077 1464v-22c0 -178 -29.333 -302 -88 -372l-24 33v22l72 186c18 102 31.333 153 40 153zM1093 1442c69.333 -56 104 -147.001 104 -273.001l-24 -142h-8v109c0 80.667 -26.667 164.334 -80 251.001v33l8 11v11zM550 1431
c46.667 0 105.333 -14.667 176 -44v-11c0 -22 -37.333 -36.667 -112 -44h-79v66l-8 11v11l8 11h15zM1835 1431c46 0 104.333 -14.667 175 -44v-11c0 -22 -37 -36.667 -111 -44h-80v66l-8 11v11l8 11h16zM3558 1409h80c58.667 -22 88 -44 88 -66h-8l-80 22l-160 -65
c0 72.667 26.667 109 80 109zM1580 1125c148.667 -22 223 -62 223 -120h-8l-88 43l-8 -10l-56 10l-55 -10v10l-112 -43l-24 54c0 34.667 42.667 56.667 128 66zM2218 1125c122 0 201.667 -40 239 -120h-8l-87 43l-8 -10l-56 10l-56 -10v10l-104 -43
c-21.333 7.33301 -32 29 -32 65c0 24.667 37.333 43 112 55zM3981 1114c21.333 0 77.333 -29 168 -87h32l-16 -22h-24l-136 33l-88 -22h-16v32l-8 55l8 11h80zM964.999 807.995c112 -22 168 -91 168 -207v-22c0 -165.333 -45.333 -256.333 -136 -273h-40
c-58.667 0 -106.334 51 -143.001 153h8c50 -73.333 97.667 -110 143 -110h32c42.667 34 64 85 64 153v33c-9.33301 94.667 -38.666 142 -87.999 142h-8l-95 -22l-8 11c0 87.333 18.333 131 55 131zM1253 796.995c0 -128.667 31.667 -237.667 95 -327v-11h-8
c-32 25.333 -77 98 -135 218v33zM2034 796.995h39.999c66.667 0 120 -43.667 160 -131h-16c-40.667 36.667 -70 55 -88 55c-103.333 0 -201.666 -40 -294.999 -120l-8 11v54c0 80 10.667 120 32 120l40 -11zM2601 796.995c85.333 -147.333 128 -307.332 128 -479.999
c-4 -204 -17.333 -306 -40 -306h-72l-16 22c42.667 124 64 244 64 360v88c0 53.333 -21.333 158.666 -64 315.999zM2968 796.996h16c10.667 0 16 -10.667 16 -32c-176 -404 -264 -655.333 -264 -754h-7v44c0 102.667 58.333 335.667 175 699c22.667 28.667 44 43 64 43z
M3183 796.996l8 0.000976562l32 -11l32 11h24l-56 -284v-109l24 -306c-9.33301 -58 -20 -87 -32 -87v11l8 76c-26.667 179.333 -40 299.666 -40 360.999v295l-8 11zM3806 796.997c0 -126 31.667 -238.666 95 -337.999h-8c-37.333 27.333 -85 103.666 -143 228.999z
M4260 796.998l48 -0.000976562l24 -22c-58.666 -171.333 -88 -298.666 -88 -381.999v-98l16 -251v-11h-8c-37.334 154 -56 266.667 -56 338l24 339v76zM4460 796.997c84.666 0 140.333 -61.667 167 -185c-12 -109.333 -28 -164 -48 -164h-8l16 87
c0 116.667 -39.666 175 -119 175h-24l-96 -11l-8 11v33c0 21.333 40 39.333 120 54zM4771 796.997l16 0.000976562c0 -21.333 5.33398 -32 16 -32h64v-11c-80 -95.333 -120 -168.333 -120 -219v-11c0 -23.333 32 -103.333 96 -240l8 -66v-32c0 -68 -24 -130 -72 -186h-8v11
c26.666 63.333 40 121.666 40 174.999c0 29.333 -37.334 113 -112 251l-16 109c0 84 29.334 167.667 88 251zM5034 796.998h56c92.666 0 164.333 -51 215 -153v-21c-26 -29.333 -39 -73.333 -39 -132h-8c-13.334 93.333 -40 159 -80 197l-96 33c-106 0 -159 -73 -159 -219
c0 -64 69 -100.333 207 -109l72 -65v-22c-49.334 43.333 -137.334 65 -264 65c-47.334 21.333 -71 65 -71 131c0 145.333 39.666 240 119 284zM773.998 785.998c36 -4 60.001 -18.334 72.001 -43.001c-53.333 -233.333 -80 -433.666 -80 -600.999l16 -131
c-19.333 0 -35.333 76.333 -48 229c5.33301 204 18.666 386 39.999 546zM3646 785.997l8 -0.000976562c53.333 -56 80 -205 80 -447v-11c0 -116.667 -29.333 -226 -88 -328h-8c37.333 116.667 56 211.334 56 284.001v33c0 138 -21.333 261.667 -64 371v11
c10.667 22 16 51 16 87zM1604 774.996c0 -16.667 13 -38.333 39 -65v-11l-191 -251c-92 -140.667 -169 -290 -231 -448h-8v11c40.667 200 163 454.667 367 764h24zM2362 774.997l7.99902 -32l-64 -361c56.667 72.667 112.334 109 167.001 109c117.333 0 176 -18 176 -54
l-8 -98v-11h-16c-61.333 72.667 -117.333 109 -168 109h-24c-90 -25.333 -135 -65.333 -135 -120c0 -51.333 21.333 -157 64 -317c-69.333 114 -104 223.333 -104 328l16 437h32zM4141 774.997h16c0 -16.667 13 -38.334 39 -65.001v-11
c-208.667 -263.333 -331 -452.666 -367 -567.999l-63 -131v11c61.333 260 186.333 514.667 375 764zM3614 764.997v-11.001c-41.333 -199.333 -102.333 -348.666 -183 -447.999v120c94.667 126 153 239 175 339h8zM3295 753.996h8c74.667 -92 112 -223.333 112 -394
c-14.667 0 -30.667 54.667 -48 164c-39.333 94.667 -68.666 142 -88 142v11zM3032 731.996c90 -73.333 135 -222.667 135 -448v-33c-2.66699 -167.333 -16 -251 -40 -251l8 76v132c0 176.667 -47.667 325.667 -143 447zM2074 698.995l7.99902 -10.999v-11
c-21.333 -66.667 -34.666 -150.334 -39.999 -251.001l24 -175c0 -71.333 -10.667 -155 -32 -251h-8l8 164v33l-39 273l-8 174c0 18 29 36.333 87 55zM5058 469.996h7.99902c159.334 -48 239 -124.667 239 -230v-32c0 -116.667 -23.666 -175 -71 -175
c0 -17.333 -53.334 -28.333 -160 -33h-183l-16 22v11l16 33v76l-8 55h8c36 -73.333 113 -110 231 -110c85.334 0 128.001 47.333 128.001 142c0 92 -56 161.333 -168 208zM4556 458.996v-11c-44 -66 -97.334 -99 -160 -99c-96 0 -144 14.667 -144 44l8 55l152 -44
c47.334 0 95.334 18.333 144 55zM2904 403.996h104c49.333 -14.667 76 -33 80 -55v-10l-88 21l-160 -65v11c10.667 65.333 32 98 64 98zM1117 392.996h8c37.333 -38.667 56 -115 56 -229c0 -109.333 -37.333 -164 -112 -164c-104 0 -191.667 25.333 -263 76v22
c56.667 -28.667 109.667 -43 159 -43h8c85.333 0 128 32.667 128 98c0 42 -13.333 89.333 -40 142zM4500 359.996l24 0.000976562c86 -98.667 136.334 -211.334 151 -338.001v-22h-8c-31.334 121.333 -95 223.333 -191 306c-16 0 -24 7.33301 -24 22
c5.33398 21.333 21.334 32 48 32z" />
    <glyph glyph-name="percent" unicode="%" horiz-adv-x="1398" 
d="M188.5 1646c-3 -9.33301 -1.99512 -21.502 3.00488 -36.502s14.5 -24.333 28.5 -28s31.333 6.66602 52 30.999s42.5 44.5 65.5 60.5s51.833 26.333 86.5 31s71.167 7.33398 109.5 8.00098s71.333 -7.33301 99 -24s47 -37.667 58 -63s21.5 -61.666 31.5 -108.999
s8.83301 -91.166 -3.5 -131.499s-25.333 -73.166 -39 -98.499s-38.334 -53.333 -74.001 -84s-35.334 -34.834 0.999023 -12.501s66.666 49.833 90.999 82.5s43.166 69.167 56.499 109.5s19 87 17 140s-11.667 96.833 -29 131.5s-42.166 63.667 -74.499 87
s-71.833 35 -118.5 35s-95.834 -5.16699 -147.501 -15.5s-99.334 -29.5 -143.001 -57.5s-67 -46.667 -70 -56zM693.505 1204.5c-21 -35.667 -20.833 -60.834 0.5 -75.501s15.333 -24 -18 -28s-61.166 -6.5 -83.499 -7.5s-53.833 -1 -94.5 0s-75.667 6.66699 -105 17
s-52 21.5 -68 33.5s-33.167 26 -51.5 42s-35.666 38 -51.999 66s-28 58.333 -35 91s-9 64.334 -6 95.001s16.667 61.834 41 93.501s55 62.334 92 92.001s31.667 11.167 -16 -55.5s-71.5 -119.167 -71.5 -157.5s4.83301 -67.833 14.5 -88.5s27.167 -45.5 52.5 -74.5
s51.166 -51.833 77.499 -68.5s53.166 -26.834 80.499 -30.501s54.5 -3.83398 81.5 -0.500977s65.833 22.5 116.5 57.5s65.5 34.667 44.5 -1zM573.505 52.998c102.333 114.667 224.669 529 367.002 1243s91.166 656.667 -153.501 -172s-315.834 -1185.67 -213.501 -1071z
M787.508 547.998c-3 -9.33301 -1.99707 -21.1699 3.00293 -35.5029s14.667 -23.333 29 -27s31.833 6.33301 52.5 30s42.834 43.334 66.501 59.001s53 25.667 88 30s72 7 111 8s72.333 -6.83301 100 -23.5s47.167 -37.167 58.5 -61.5s22.166 -59.833 32.499 -106.5
s9.16602 -89.5 -3.50098 -128.5s-25.834 -70.833 -39.501 -95.5s-38.667 -52 -75 -82s-36 -34.167 1 -12.5s67.833 48.5 92.5 80.5s43.667 67.667 57 107s19 84.833 17 136.5s-11.833 94.334 -29.5 128.001s-42.834 62 -75.501 85s-72.667 34.5 -120 34.5
s-97.333 -5 -150 -15s-101 -28.667 -145 -56s-67.5 -45.666 -70.5 -54.999zM1329.51 123.994c-21 -34.667 -20.6719 -59.166 0.995117 -73.499s15.5 -23.5 -18.5 -27.5s-62.333 -6.5 -85 -7.5s-54.5 -1 -95.5 0s-76.333 6.5 -106 16.5s-52.667 21 -69 33
s-33.833 25.667 -52.5 41s-36.167 36.666 -52.5 63.999s-28.166 57 -35.499 89s-9.5 63 -6.5 93s16.833 60.5 41.5 91.5s55.834 60.833 93.501 89.5s32.334 10.5 -15.999 -54.5s-72.5 -116.167 -72.5 -153.5s4.83301 -66.166 14.5 -86.499s27.334 -44.5 53.001 -72.5
s51.834 -50.333 78.501 -67s54 -26.834 82 -30.501s55.667 -3.66699 83 0s66.5 22.5 117.5 56.5s66 33.667 45 -1z" />
    <glyph glyph-name="ampersand" unicode="&#x26;" 
d="M233 1544.5c-18 -50.333 -52.3311 -94.3311 -102.998 -131.998s171.666 -276.834 666.999 -717.501s604.166 -507.334 326.499 -200.001s-477.667 544 -600 710s-196.833 276.667 -223.5 332s-49 57.833 -67 7.5zM340.002 1589.5
c30 -35 48.0029 -70.0029 54.0029 -105.003s46.333 -17.5 121 52.5s177.667 116.5 309 139.5s229.833 10.5 295.5 -37.5s98.5 -104.667 98.5 -170s-64.333 -144.666 -193 -237.999s-213.834 -153.833 -255.501 -181.5s22.666 5 192.999 98s281 164.833 332 215.5
s55.5 126.334 13.5 227.001s-91.333 167.334 -148 200.001s-138.834 49 -246.501 49s-237.667 -32.833 -390 -98.5s-213.5 -116 -183.5 -151zM542.005 834.499c56.667 -40.333 32.6689 -91.833 -71.998 -154.5s-186.834 -139.5 -246.501 -230.5s-86.5 -171.667 -80.5 -242
s41.833 -109.333 107.5 -117s141.834 7.33301 228.501 45s200.167 94.334 340.5 170.001s137.333 60.667 -9 -45s-270.333 -173.667 -372 -204s-189.834 -41.666 -264.501 -33.999s-122.334 44.167 -143.001 109.5s-16 144.666 14 237.999s106.167 204.166 228.5 332.499
s211.833 172.333 268.5 132zM1155.51 539.999c35.667 -45.333 83.5 -5 143.5 121s42.167 148.667 -53.5 68s-125.667 -143.667 -90 -189z" />
    <glyph glyph-name="quotesingle" unicode="'" horiz-adv-x="391" 
 />
    <glyph glyph-name="parenleft" unicode="(" horiz-adv-x="682" 
d="M655 1819.5c2.66699 -38.333 8.83496 -76.502 18.502 -114.502s-34.5 -81.5 -132.5 -130.5s-174.5 -124 -229.5 -225s-94.833 -210 -119.5 -327s-27.834 -230 -9.50098 -339s53.666 -211.167 105.999 -306.5s138 -189.166 257 -281.499s109.833 -104.5 -27.5 -36.5
s-245.833 159.167 -325.5 273.5s-131.667 242.333 -156 384s-33.5 273.834 -27.5 396.501s56.333 252.167 151 388.5s200.167 233 316.5 290s175.833 66.333 178.5 28z" />
    <glyph glyph-name="parenright" unicode=")" horiz-adv-x="636" 
d="M488.5 1501.5c84.333 -136.333 129.173 -265.831 134.506 -388.498s-2.83398 -254.834 -24.501 -396.501s-68 -269.667 -139 -384s-167.833 -205.5 -290.5 -273.5s-130.834 -55.833 -24.501 36.5s182.666 186.166 228.999 281.499s77.666 197.5 93.999 306.5
s13.666 222 -8.00098 339s-57 226 -106 327s-117.167 176 -204.5 225s-126.833 92.5 -118.5 130.5s13.666 76.167 15.999 114.5s55.5 29 159.5 -28s198.167 -153.667 282.5 -290z" />
    <glyph glyph-name="asterisk" unicode="*" horiz-adv-x="797" 
 />
    <glyph glyph-name="plus" unicode="+" horiz-adv-x="1196" 
 />
    <glyph glyph-name="comma" unicode="," horiz-adv-x="353" 
d="M165.5 233c25 -20 53.833 -118.667 86.5 -296s30.167 -194.833 -7.5 -52.5s-76.5 203.5 -116.5 183.5s-50 7.5 -30 82.5s42.5 102.5 67.5 82.5z" />
    <glyph glyph-name="hyphen" unicode="-" horiz-adv-x="614" 
d="M26 962.5c17.333 -37.667 18.5 -86.332 3.5 -145.999s109.833 -67 374.5 -22s263.5 93.667 -3.5 146s-391.833 59.666 -374.5 21.999z" />
    <glyph glyph-name="hyphen" unicode="&#xad;" horiz-adv-x="614" 
d="M26 962.5c17.333 -37.667 18.5 -86.332 3.5 -145.999s109.833 -67 374.5 -22s263.5 93.667 -3.5 146s-391.833 59.666 -374.5 21.999z" />
    <glyph glyph-name="period" unicode="." horiz-adv-x="353" 
d="M172.5 1072c25 -20 52.5 -37.5 82.5 -52.5s23.833 -32.5 -18.5 -52.5s-79.833 -40 -112.5 -60s-39 7.5 -19 82.5s42.5 102.5 67.5 82.5zM187.5 233c25 -20 53.833 -118.667 86.5 -296s30.167 -194.833 -7.5 -52.5s-76.5 203.5 -116.5 183.5s-50 7.5 -30 82.5
s42.5 102.5 67.5 82.5z" />
    <glyph glyph-name="slash" unicode="/" horiz-adv-x="569" 
d="M78.5 30c102.333 114.667 224.669 529 367.002 1243s91.166 656.667 -153.501 -172s-315.834 -1185.67 -213.501 -1071z" />
    <glyph glyph-name="zero" unicode="0" horiz-adv-x="870" 
d="M6.5 1499.5c-4.33301 -25.667 -2.83008 -58.8359 4.50293 -99.5029s21.166 -66.167 41.499 -76.5s45.166 17.667 74.499 84s60.833 121.5 94.5 165.5s75.334 72.333 125.001 85s102.167 20.334 157.5 23.001s102.833 -19.166 142.5 -65.499s67.5 -104 83.5 -173
s31.167 -168.833 45.5 -299.5s12.833 -251.167 -4.5 -361.5s-36 -200.166 -56 -269.499s-55.833 -146 -107.5 -230s-51.167 -95.333 1.5 -34s96.5 136.833 131.5 226.5s62 189.5 81 299.5s27 238 24 384s-16.833 266.333 -41.5 361s-60.334 174.167 -107.001 238.5
s-103.667 96.5 -171 96.5s-138.333 -14.167 -213 -42.5s-143.334 -81 -206.001 -158s-96.167 -128.333 -100.5 -154zM746.003 309.998c-30 -97.333 -29.5059 -166.338 1.49414 -207.005s22.167 -66.334 -26.5 -77.001s-89 -17.334 -121 -20.001s-77.167 -2.66699 -135.5 0
s-108.666 18 -150.999 46s-75.166 58.667 -98.499 92s-48.166 71.833 -74.499 115.5s-51.166 104 -74.499 181s-40.166 160.167 -50.499 249.5s-13.333 176.333 -9 261s24 170.5 59 257.5s79.333 170.833 133 251.5s46 29.667 -23 -153s-103.5 -326.667 -103.5 -432
s7 -186.166 21 -242.499s39.167 -124.166 75.5 -203.499s73.5 -142.166 111.5 -188.499s76.833 -74.666 116.5 -84.999s78.834 -10.666 117.501 -0.999023s94.5 62.334 167.5 158.001s94.5 94.834 64.5 -2.49902z" />
    <glyph glyph-name="one" unicode="1" horiz-adv-x="1047" 
d="M601 1828c0.666992 -34 25.5 -74.667 74.5 -122s13 -88.166 -108 -122.499s-245.833 -134 -374.5 -299s-140.667 -148.333 -36 50s204.667 338.666 300 420.999s143.333 106.5 144 72.5zM585.5 1556c41.667 0 79.8311 10.332 114.498 30.999
s38.834 -69.666 12.501 -270.999l-87 -672.5c-31.667 -247 -49 -394.833 -52 -443.5s-12.167 26.5 -27.5 225.5s-15.333 363.5 0 493.5s15.333 268.667 0 416s-2.16602 221 39.501 221zM1048.5 172.999c-18.333 -30.667 -24.834 -66.332 -19.501 -106.999s-25 -52 -91 -34
s-159.833 25.667 -281.5 23s-259 -12.834 -412 -30.501s-150.333 -8.66699 8 27s290.333 63.667 396 84l293 57c89.667 17.667 125.334 11.167 107.001 -19.5z" />
    <glyph glyph-name="two" unicode="2" horiz-adv-x="1139" 
d="M115 1337c39.333 62.667 81.6699 122.833 127.003 180.5s96.833 113.834 154.5 168.501s110.334 92.5 158.001 113.5s103.167 32.667 166.5 35s124.166 -16 182.499 -55s88.666 -83.333 90.999 -133s3.5 -122.834 3.5 -219.501s-13.167 -192 -39.5 -286
s-58 -171 -95 -231s-81.833 -120.167 -134.5 -180.5l-166 -184.5c-58 -62.667 -109.5 -116.167 -154.5 -160.5s-87.333 -90 -127 -137s-78 -100.333 -115 -160s-74 -49.167 -111 31.5s-23.833 136.667 39.5 168s186.166 146.333 368.499 345s298.5 350.167 348.5 454.5
s79 215.166 87 332.499s-2.33301 197 -31 239s-73.5 64.167 -134.5 66.5s-136.333 -18.667 -226 -63s-171.5 -113.5 -245.5 -207.5s-126.833 -152.667 -158.5 -176s-27.834 -3.66602 11.499 59.001zM1121 137.999c-18.667 -36.667 -25.334 -70.6641 -20.001 -101.997
s-19.667 -27.333 -75 12s-139.666 66.833 -252.999 82.5s-242.666 0 -387.999 -47s-149.5 -35.333 -12.5 35s250.5 112.166 340.5 125.499s185.167 8.16602 285.5 -15.501s141.166 -53.834 122.499 -90.501z" />
    <glyph glyph-name="three" unicode="3" horiz-adv-x="1139" 
d="M42.5 1583.5c28.333 -15.667 48.832 -53.5 61.499 -113.5s35.667 -61.333 69 -4s75.5 108.333 126.5 153s112.167 68.167 183.5 70.5s163.333 -3 276 -16s181.667 -65.167 207 -156.5s7.33301 -173.666 -54 -246.999s-130.333 -134.833 -207 -184.5
s-208.167 -102.167 -394.5 -157.5s-169.666 -62 50.001 -20s387 104.833 502 188.5s185.333 154.334 211 212.001s34.5 136.167 26.5 235.5s-33.667 168.666 -77 207.999s-111 65.5 -203 78.5s-181.5 19.5 -268.5 19.5s-166 -22.167 -237 -66.5
s-141.167 -84.833 -210.5 -121.5s-89.833 -62.834 -61.5 -78.501zM950.499 1046c-25.667 -23.333 -55.165 -40.333 -88.498 -51s-32 -44.834 4 -102.501s55.333 -127 58 -208s0 -156.667 -8 -227s-26 -139.666 -54 -207.999s-77.667 -106.5 -149 -114.5
s-133.833 -12 -187.5 -12s-112.334 13.167 -176.001 39.5s-131.334 73.5 -203.001 141.5s-76.834 58.833 -15.501 -27.5s130.166 -150.333 206.499 -192s179.666 -66.5 309.999 -74.5s210.833 -0.166992 241.5 23.5s70.334 78.667 119.001 165s76.834 184.5 84.501 294.5
s-7.66602 235.5 -45.999 376.5s-70.333 199.833 -96 176.5z" />
    <glyph glyph-name="four" unicode="4" horiz-adv-x="1139" 
d="M29 1802.5c19.333 27 52.167 40.5 98.5 40.5s71 -30.833 74 -92.5s-5.16699 -177 -24.5 -346s-38.5 -308.5 -57.5 -418.5s-34 -104.667 -45 16s-26.167 277.5 -45.5 470.5s-19.333 303 0 330zM172.501 998c-16.333 -91.333 1.50098 -120.998 53.501 -88.998
s127.333 52.167 226 60.5s239.667 -15.834 423 -72.501s221.666 -51.334 114.999 15.999s-202.334 114.5 -287.001 141.5s-190.167 47.167 -316.5 60.5s-197.666 -25.667 -213.999 -117zM899.502 1783c52.333 -18.667 100.5 -13.334 144.5 15.999s45.333 -25.667 4 -165
s-68.833 -284.166 -82.5 -434.499s-23.167 -155.666 -28.5 -15.999s-26 279.167 -62 418.5s-27.833 199.666 24.5 180.999zM998.502 805.002c90.333 -16 117.671 -60.333 82.0039 -133s-54.834 -162.5 -57.501 -269.5s-21.834 -210 -57.501 -309
s-45.334 -103.167 -29.001 -12.5s13.666 185.667 -8.00098 285s-38 201.333 -49 306s28.667 149 119 133z" />
    <glyph glyph-name="five" unicode="5" horiz-adv-x="1139" 
d="M51 1808c18 -30.667 13.998 -86.168 -12.002 -166.501s7.83301 -94 101.5 -41s185.834 80.833 276.501 83.5s194.334 4 311.001 4s203.667 -16.667 261 -50s56.166 -23.5 -3.50098 29.5s-120.667 87.667 -183 104s-131.166 32.833 -206.499 49.5
s-189.5 26.334 -342.5 29.001s-220.5 -11.333 -202.5 -42zM70.498 1500.5c-41.667 -13.667 -54.6641 -60.667 -38.9971 -141s22.167 -156.5 19.5 -228.5s-7.83398 -144.167 -15.501 -216.5s0.166016 -72.333 23.499 0s40.166 139 50.499 200s16.833 144 19.5 249
s-16.833 150.667 -58.5 137zM129.001 931.499c-38.667 -88.333 -22.998 -116.169 47.002 -83.502s147.833 50.5 233.5 53.5s183 0.333008 292 -8s179.167 -45.666 210.5 -111.999s48.166 -130 50.499 -191s-5.5 -127.667 -23.5 -200s-42.667 -129.166 -74 -170.499
s-74.166 -67.5 -128.499 -78.5s-107.5 -19.333 -159.5 -25s-106.5 -5.66699 -163.5 0s-119.333 34.667 -187 87s-119.667 98 -156 137s-29.833 15.5 19.5 -70.5s105.166 -145.667 167.499 -179s142.833 -56.833 241.5 -70.5s189.5 -16.334 272.5 -8.00098
s158.333 47 226 116s106.667 143.667 117 224s13 170.5 8 270.5s-22 180.5 -51 241.5s-73.333 111 -133 150s-134.834 61.167 -225.501 66.5s-201 3.83301 -331 -4.5s-214.333 -56.666 -253 -144.999z" />
    <glyph glyph-name="six" unicode="6" horiz-adv-x="1139" 
d="M1041 1664.5c-24.667 -43 -41.9961 -101.335 -51.9961 -175.002s-27.5 -80 -52.5 -19s-56 107.833 -93 140.5s-98.833 51.5 -185.5 56.5s-171 -22.667 -253 -83s-140.333 -137.5 -175 -231.5s-59.5 -201.5 -74.5 -322.5s-16.333 -263.667 -4 -428
s50.833 -276.833 115.5 -337.5s146.667 -94.667 246 -102s186 -9.83301 260 -7.5s126 25 156 68s47.5 107.333 52.5 193s-2.5 166.5 -22.5 242.5s-58.5 131.667 -115.5 167s-118.833 56.833 -185.5 64.5s-152.334 -18.666 -257.001 -78.999s-165.5 -114.666 -182.5 -162.999
s-21.833 -45.833 -14.5 7.5s33.333 98.833 78 136.5s96.834 71.667 156.501 102s130.334 54.333 212.001 72s158.5 12.667 230.5 -15s121.667 -75.667 149 -144s48.5 -144.333 63.5 -228s18.667 -165.667 11 -246s-33.834 -147.166 -78.501 -200.499
s-109 -88.833 -193 -106.5s-175.833 -26.5 -275.5 -26.5s-187.834 20.167 -264.501 60.5s-134.834 93.5 -174.501 159.5s-69.334 188.5 -89.001 367.5s-28.334 321.667 -26.001 428s17 215.166 44 326.499s91.5 212.333 193.5 303s210 147.5 324 170.5s228 14.333 342 -26
s158.667 -82 134 -125z" />
    <glyph glyph-name="seven" unicode="7" horiz-adv-x="1139" 
d="M32 1786.5c10.667 -49.667 7.99902 -111.169 -8.00098 -184.502s57.833 -82.166 221.5 -26.499s310.167 88 439.5 97s243.666 11.833 342.999 8.5s105.833 8.33398 19.5 35.001s-183 45.667 -290 57s-210.167 24.5 -309.5 39.5s-196.166 26.833 -290.499 35.5
s-136.166 -11.833 -125.499 -61.5zM882.499 1614.5c56.333 -0.333008 114.001 2.66602 173.001 8.99902s76.5 -102 52.5 -325s-58.833 -519 -104.5 -888s-71 -489 -76 -360s-9 354.667 -12 677s-23.333 550.833 -61 685.5s-28.334 201.834 27.999 201.501z" />
    <glyph glyph-name="eight" unicode="8" horiz-adv-x="1139" 
d="M595 1756.5c0 -55 -20.833 -75.3301 -62.5 -60.9971s-96.334 9.66602 -164.001 -14.001s-127.667 -69 -180 -136s-80 -136.5 -83 -208.5s6 -146.333 27 -223s62.833 -134 125.5 -172s147.667 -71.333 255 -100s108.833 -39.5 4.5 -32.5s-199.833 34.5 -286.5 82.5
s-144.167 105.5 -172.5 172.5s-45.166 150.667 -50.499 251s14.167 194.666 58.5 282.999s101.833 151.666 172.5 189.999s147.667 56.333 231 54s125 -31 125 -86zM685.5 773.503c-18.333 -50.333 4.99805 -74.333 69.998 -72s115.833 -20.334 152.5 -68.001
s48.667 -108.667 36 -183s-50.5 -141.333 -113.5 -201s-151.833 -89.5 -266.5 -89.5s-215.167 27.5 -301.5 82.5s-129.5 122 -129.5 201s27.5 162.833 82.5 251.5s52.333 103 -8 43s-104.833 -143.833 -133.5 -251.5s-36.5 -185.5 -23.5 -233.5s66.5 -95.667 160.5 -143
s185.5 -79.333 274.5 -96s188.333 -5.83398 298 32.499s189.334 98 239.001 179s75.667 176.333 78 286s-61.667 193.334 -192 251.001s-204.666 61.334 -222.999 11.001zM689.498 878.003c52.333 0 100.669 16.666 145.002 49.999s82.166 82.333 113.499 147
s51 126.834 59 186.501s4.16699 125.334 -11.5 197.001s-79.667 156.5 -192 254.5s-142.333 111.333 -90 40s99.166 -139.5 140.499 -204.5s59.5 -142.833 54.5 -233.5s-27.167 -162.334 -66.5 -215.001s-102 -73 -188 -61s-114.667 -11.833 -86 -71.5
s69.167 -89.5 121.5 -89.5z" />
    <glyph glyph-name="nine" unicode="9" horiz-adv-x="1139" 
d="M905 1468c40 29.333 80.0029 29.333 120.003 0s55.833 -0.333008 47.5 87s-43 157.5 -104 210.5s-131.333 80.833 -211 83.5s-170 0 -271 -8s-191.333 -34.5 -271 -79.5s-135.5 -104.5 -167.5 -178.5s-45.333 -152 -40 -234s11.833 -157.333 19.5 -226
s46.167 -136 115.5 -202s133.333 -105.5 192 -118.5s123.834 -18.333 195.501 -16s152.667 53.833 243 154.5s91.666 116.667 3.99902 48s-166 -105.667 -235 -111s-127.5 2.5 -175.5 23.5s-91.833 51.333 -131.5 91s-64.834 86 -75.501 139s-14.834 111.167 -12.501 174.5
s15.666 118.833 39.999 166.5s53.666 90 87.999 127s75.5 64.667 123.5 83s99.833 28.833 155.5 31.5s108.834 -15.833 159.501 -55.5s85.167 -88.667 103.5 -147s47.5 -72.833 87.5 -43.5zM833.503 33c29 13.333 83.501 8.16797 163.501 -15.499s110.5 -6.5 91.5 51.5
s-31.167 121.5 -36.5 190.5s-8 129.667 -8 182v178c0 66.333 2.66699 125.833 8 178.5s12.166 106.834 20.499 162.501s11 110 8 163s-20.5 121.667 -52.5 206s-45.333 88.166 -40 11.499s8 -136.167 8 -178.5s-3.83301 -89.833 -11.5 -142.5s-19.5 -110.667 -35.5 -174
s-32 -117.5 -48 -162.5s-32 -94 -48 -147s-26.667 -113.667 -32 -182s-11.833 -142.333 -19.5 -222s3 -112.834 32 -99.501z" />
    <glyph glyph-name="colon" unicode=":" horiz-adv-x="353" 
d="M165.5 473c25 -20 52.5 -37.5 82.5 -52.5s23.833 -32.5 -18.5 -52.5s-79.833 -40 -112.5 -60s-39 7.5 -19 82.5s42.5 102.5 67.5 82.5zM165.5 1326c25 -20 52.5 -37.5 82.5 -52.5s23.833 -32.5 -18.5 -52.5s-79.833 -40 -112.5 -60s-39 7.5 -19 82.5
s42.5 102.5 67.5 82.5z" />
    <glyph glyph-name="semicolon" unicode=";" horiz-adv-x="353" 
d="M165.5 233c25 -20 53.833 -118.667 86.5 -296s30.167 -194.833 -7.5 -52.5s-76.5 203.5 -116.5 183.5s-50 7.5 -30 82.5s42.5 102.5 67.5 82.5z" />
    <glyph glyph-name="semicolon" unicode="&#x37e;" horiz-adv-x="353" 
d="M165.5 233c25 -20 53.833 -118.667 86.5 -296s30.167 -194.833 -7.5 -52.5s-76.5 203.5 -116.5 183.5s-50 7.5 -30 82.5s42.5 102.5 67.5 82.5z" />
    <glyph glyph-name="less" unicode="&#x3c;" horiz-adv-x="1196" 
d="M1063 1637c37.333 -100.667 -9.49902 -162.5 -140.499 -185.5s-259.333 -74.333 -385 -154s-250.5 -189.167 -374.5 -328.5s-143.333 -144 -58 -14s179.166 240 281.499 330s231.333 196.333 387 319s252.167 133.667 289.5 33zM1155.5 287.5
c-23 -79 -89.1719 -103.168 -198.505 -72.501s-228.666 77 -357.999 139s-262.666 181.5 -399.999 358.5s-141.166 202 -11.499 75s244.834 -215.667 345.501 -266s235.334 -82.166 404.001 -95.499s241.5 -59.5 218.5 -138.5z" />
    <glyph glyph-name="equal" unicode="=" horiz-adv-x="1042" 
d="M55 1195.5c7.33301 -61.667 2.5 -134.667 -14.5 -219s141.833 -95.5 476.5 -33.5s422 91.667 262 89s-322.5 39.333 -487.5 126s-243.833 99.167 -236.5 37.5zM267 624c-138.667 2.66699 -62.667 -27 228 -89s428.5 -50.833 413.5 33.5s-19.333 157.333 -13 219
s-62.167 49.167 -205.5 -37.5s-284.333 -128.667 -423 -126z" />
    <glyph glyph-name="greater" unicode="&#x3e;" horiz-adv-x="1101" 
d="M772.5 1270c95 -90 182 -200 261 -330s61 -125.333 -54 14s-230.667 248.833 -347 328.5s-235.333 131 -357 154s-165.167 84.833 -130.5 185.5s124.167 89.667 268.5 -33s264 -229 359 -319zM637 506.5c93.333 50.333 200.163 139.001 320.496 266.001
s116.833 102 -10.5 -75s-251.166 -296.5 -371.499 -358.5s-231.166 -108.333 -332.499 -139s-162.666 -6.5 -183.999 72.5s46.334 125.167 203.001 138.5s281.667 45.166 375 95.499z" />
    <glyph glyph-name="question" unicode="?" horiz-adv-x="1139" 
d="M45.5 1561c30.333 -18 51.1699 -63.1621 62.5029 -135.495s36.166 -77.5 74.499 -15.5s82.333 114.833 132 158.5s117.167 77.167 202.5 100.5s158.333 35 219 35s110 -28.333 148 -85s47.5 -117.334 28.5 -182.001s-61.667 -122.834 -128 -174.501
s-132.5 -107 -198.5 -166s-122.333 -127.333 -169 -205s-64.5 -169.334 -53.5 -275.001s37.167 -189.5 78.5 -251.5s51 -60.667 29 4s-33 133 -33 205s12.333 137.667 37 197s77 117.5 157 174.5s147.5 100.833 202.5 131.5s104.5 73.167 148.5 127.5
s78.333 112.5 103 174.5s26 130.333 4 205s-60.5 134 -115.5 178s-126.5 67.167 -214.5 69.5s-173.333 -2.83398 -256 -15.501s-187.334 -53.834 -314.001 -123.501s-174.834 -113.5 -144.501 -131.5zM463.004 226.505c30.667 -17 73 -17.6689 127 -2.00195
s59.167 1.83398 15.5 -41.499s-74.834 -92.166 -93.501 -146.499s-39.167 -32 -61.5 67s-18.166 140 12.501 123z" />
    <glyph glyph-name="at" unicode="@" horiz-adv-x="1715" 
d="M969 1386c30.667 4 75.0068 13.8389 133.007 29.5059s60.833 -139 8.5 -464s-67.666 -503.667 -45.999 -536s50.834 -48.333 87.501 -48s75.5 7.5 116.5 21.5s83 40.833 126 80.5s77.667 89.667 104 150s35.166 122 26.499 185s-22.5 138.333 -41.5 226
s-44.167 170.167 -75.5 247.5s-69.5 141 -114.5 191s-99 95.333 -162 136s-124.833 65.5 -185.5 74.5s-131.667 8.33301 -213 -2s-159.5 -23.833 -234.5 -40.5s-145.167 -55.834 -210.5 -117.501s-111 -122.667 -137 -183s-34.5 -134.333 -25.5 -222
s22.5 -184.334 40.5 -290.001s48.5 -201 91.5 -286s95 -161.667 156 -230s129.5 -119 205.5 -152s149.333 -48 220 -45s147.5 11.167 230.5 24.5s166.167 36.666 249.5 69.999s154.666 84 213.999 152s61.166 59.833 5.49902 -24.5s-132 -146 -229 -185
s-193.5 -69.167 -289.5 -90.5s-192 -31.333 -288 -30s-178.5 19.333 -247.5 54s-135 89.667 -198 165s-111 155.5 -144 240.5s-64.667 186.167 -95 303.5s-45.833 229.5 -46.5 336.5s16.166 200.167 50.499 279.5s77.666 146.166 129.999 200.499
s118.166 96.333 197.499 126s171.666 56.167 276.999 79.5s206.166 28.166 302.499 14.499s175.166 -43.334 236.499 -89.001s123 -104 185 -175s105.5 -147.167 130.5 -228.5s58.167 -178.5 99.5 -291.5s54.5 -219.667 39.5 -320s-60 -193.5 -135 -279.5
s-148.833 -142 -221.5 -168s-141.5 -36.333 -206.5 -31s-120 37.833 -165 97.5s-56 247.5 -33 563.5s49.833 476 80.5 480zM867.507 1241.01c-12.333 -67.333 -74.667 -108.498 -187 -123.498s-188.833 -53 -229.5 -114s-53.167 -133.333 -37.5 -217
s48.167 -143.834 97.5 -180.501s111.833 -65.167 187.5 -85.5s78 -30.833 7 -31.5s-140 17.666 -207 54.999s-115 95 -144 173s-45.333 154 -49 228s18 138.5 65 193.5s144.667 102.667 293 143s216.333 26.833 204 -40.5z" />
    <glyph glyph-name="A" unicode="A" 
d="M414 1450c62.667 182 122.832 293.5 180.499 334.5s108.167 61.5 151.5 61.5s66.333 -20.5 69 -61.5s-72.166 -183.667 -224.499 -428s-275.833 -475 -370.5 -692s-155 -396.167 -181 -537.5s-36.167 -140 -30.5 4s59 354.333 160 631zM921.998 1666
c-17.333 -38 -46.0029 -70.667 -86.0029 -98s-9.83301 -85.666 90.5 -174.999s179.333 -220.833 237 -394.5s89.334 -357 95.001 -550s-1.66602 -324.667 -21.999 -395s-11.666 -64.833 26.001 16.5s60.667 221.166 69 419.499s-1.83398 387 -30.501 566
s-94.667 335 -198 468s-163.666 180.5 -180.999 142.5zM413.495 868.5c5.66699 -32.333 -8.5 -75.833 -42.5 -130.5s-2.33301 -56.167 95 -4.5s193.333 87 288 106s185.167 12.333 271.5 -20s92 -21.333 17 33s-154 81.5 -237 81.5s-170.5 -2.83301 -262.5 -8.5
s-135.167 -24.667 -129.5 -57z" />
    <glyph glyph-name="B" unicode="B" 
d="M140.5 1816c26.333 -32.667 68.333 -46.333 126 -41s57.667 -78.167 0 -250.5s-99.667 -350 -126 -533s-43.333 -355.167 -51 -516.5s0.333008 -285.833 24 -373.5s15.834 -86.334 -23.499 3.99902s-64.166 217.5 -74.499 381.5s-3.83301 349.833 19.5 557.5
s40.166 396.334 50.499 566.001s28.666 238.167 54.999 205.5zM411.5 1738.5c7.66699 -51.667 2.33008 -102.165 -16.0029 -151.498s9.16699 -60.333 82.5 -33s147.833 39.5 223.5 36.5s144.834 -37.333 207.501 -103s95.334 -138.167 98.001 -217.5
s-3.83301 -151.833 -19.5 -217.5s-45.667 -124.334 -90 -176.001s-91.5 -78.834 -141.5 -81.501s-110.167 4.16602 -180.5 20.499s-156.5 76.333 -258.5 180s-107.333 91.334 -16 -36.999s189.333 -203.5 294 -225.5s200.167 -17.833 286.5 12.5s149 70 188 119
s71.5 120 97.5 213s36.5 195.5 31.5 307.5s-33.667 206.333 -86 283s-136 128.667 -251 156s-220.667 32.833 -317 16.5s-140.666 -50.333 -132.999 -102zM1045.5 754.003c-44.333 -24.667 -47.0039 -68.5 -8.00391 -131.5s65.167 -125.833 78.5 -188.5
s7 -120.167 -19 -172.5s-71.667 -89.333 -137 -111s-134.666 -32.5 -207.999 -32.5s-141.333 2.66699 -204 8s-148.667 27.166 -258 65.499s-102.666 26.166 20.001 -36.501s245.334 -101 368.001 -115s229.667 -21 321 -21s168.5 24.667 231.5 74s99.667 131.5 110 246.5
s2.5 220.333 -23.5 316s-60 169.334 -102 221.001s-69.667 50.334 -83 -3.99902s-42.166 -93.833 -86.499 -118.5z" />
    <glyph glyph-name="C" unicode="C" horiz-adv-x="1479" 
d="M1343 1499c0 -48 -5.33301 -90.668 -16 -128.001s-29 -60 -55 -68s-70.5 10.667 -133.5 56s-120.5 97.333 -172.5 156s-120 101.5 -204 128.5s-171.667 32.333 -263 16s-177.666 -76.5 -258.999 -180.5s-128.5 -212 -141.5 -324s6.66699 -253.333 59 -424
s47 -184 -16 -40s-102.333 282.667 -118 416s0.166016 248 47.499 344s115.5 180.167 204.5 252.5s187.167 115 294.5 128s209.333 16.833 306 11.5s179 -26.666 247 -63.999s121.667 -81.333 161 -132s59 -100 59 -148zM1244.5 710.499
c18.333 -19 45.9971 -28.5 82.9971 -28.5s68.333 5.33301 94 16s35.834 -26.5 30.501 -111.5s-32.666 -174.333 -81.999 -268s-101.5 -163.167 -156.5 -208.5s-125.667 -74.666 -212 -87.999s-200.166 -14.5 -341.499 -3.5s-234.333 36.333 -279 76s-94.5 89 -149.5 148
s-106 132.5 -153 220.5s-41.833 94.5 15.5 19.5s120.166 -136.5 188.499 -184.5s145.666 -85.333 231.999 -112s174 -37.334 263 -32.001s168.833 28 239.5 68s124.334 100.167 161.001 180.5s52.334 156.5 47.001 228.5s1.16699 98.5 19.5 79.5z" />
    <glyph glyph-name="D" unicode="D" horiz-adv-x="1479" 
d="M86.5 1785.5c35 -20.333 72.3281 -18.9961 111.995 4.00391s43.334 -22.667 11.001 -137s-54.166 -229.333 -65.499 -345s-4.33301 -217.667 21 -306s45 -173.833 59 -256.5s16.833 -163.834 8.5 -243.501s-32.166 -165.834 -71.499 -258.501
s-74.5 -164.334 -105.5 -215.001s-29 -28.334 6 66.999s62.5 189.5 82.5 282.5s25.833 176.5 17.5 250.5s-30.166 133.333 -65.499 178s-58.666 104.667 -69.999 180s-18.5 156.333 -21.5 243s1.16699 206.167 12.5 358.5s34.5 218.333 69.5 198zM285.995 1703
c-24 -72.667 11.8291 -102.498 107.496 -89.498s201.334 14.5 317.001 4.5s208.167 -35.333 277.5 -76s135 -94.167 197 -160.5s107 -140.833 135 -223.5s35.833 -189.334 23.5 -320.001s-40.5 -240 -84.5 -328s-105.5 -158.833 -184.5 -212.5s-184 -115.334 -315 -185.001
s-264.833 -87.667 -401.5 -54s-133.167 26.5 10.5 -21.5s292.334 -43 446.001 15s263 111.5 328 160.5s132.833 143.833 203.5 284.5s108.667 301.5 114 482.5s-27.167 323.667 -97.5 428s-159.166 197.833 -266.499 280.5s-234.166 131.167 -380.499 145.5
s-248.5 14.333 -306.5 0s-99 -57.833 -123 -130.5z" />
    <glyph glyph-name="E" unicode="E" 
d="M66 1829.5c39.333 -18.333 88.833 -16.832 148.5 4.50098s68.667 -18.667 27 -120s-74.167 -246.5 -97.5 -435.5s-35 -355.167 -35 -498.5s15.667 -276.333 47 -399s63.833 -219.667 97.5 -291s24.5 -74 -27.5 -8s-96.333 164.167 -133 294.5
s-60.167 272.666 -70.5 426.999s-16.666 311.333 -18.999 471s-2.33301 296.667 0 411s23.166 162.333 62.499 144zM292.5 1657.5c-44.333 -90.333 -3.00098 -125 123.999 -104s254.167 39.5 381.5 55.5s254.5 13.333 381.5 -8s134.667 -11.833 23 28.5s-227 67 -346 80
s-231.667 30.167 -338 51.5s-181.666 -13.167 -225.999 -103.5zM1288.5 1019c-18.333 -48 -19.668 -106.5 -4.00098 -175.5s-28.333 -75.5 -132 -19.5s-212.667 92 -327 108s-216.833 24 -307.5 24s-175 -22.667 -253 -68s-81.833 -38.833 -11.5 19.5s152 96.833 245 115.5
s194.167 32 303.5 40s222.333 14.667 339 20s165.834 -16 147.501 -64zM307.497 102.001c28.333 -79.333 72.333 -99.166 132 -59.499s142.667 63.5 249 71.5s223.166 8 350.499 0s215.833 -33.333 265.5 -76s49.667 -33.334 0 27.999s-120 106.5 -211 135.5
s-189.667 47.5 -296 55.5s-221.666 4 -345.999 -12s-172.333 -63.667 -144 -143z" />
    <glyph glyph-name="F" unicode="F" horiz-adv-x="1251" 
d="M89 1824c33.333 8 72.001 15.9971 116.001 23.9971s71.167 -9.5 81.5 -52.5s-3.83398 -113.667 -42.501 -212s-71 -234.333 -97 -408s-41.5 -320.5 -46.5 -440.5s4.16699 -250.667 27.5 -392s42.666 -245.166 57.999 -311.499s-4.16699 -26.166 -58.5 120.501
s-89.166 289.334 -104.499 428.001s-20.5 286.5 -15.5 443.5s16.667 283.667 35 380s22.333 188.5 12 276.5s1.16699 136 34.5 144zM360.001 1695.5c2.66699 -45 -8.83301 -95.501 -34.5 -151.501s1.33301 -61.333 81 -16s176 70.666 289 75.999s210.667 8 293 8
s150.5 -10.667 204.5 -32s56.667 -14.666 8 20.001s-109.167 59.834 -181.5 75.501s-149.5 28.834 -231.5 39.501s-159.167 20.167 -231.5 28.5s-123.833 13.666 -154.5 15.999s-44.667 -19 -42 -64zM1201.5 1132c-18.333 -26.667 -22.333 -60 -12 -100s-32 -44 -127 -12
s-197.833 52 -308.5 60s-238.167 -2.66699 -382.5 -32s-145.833 -20 -4.5 28s253.333 78.667 336 92s191 17.333 325 12s191.833 -21.333 173.5 -48z" />
    <glyph glyph-name="G" unicode="G" horiz-adv-x="1479" 
d="M1343 1499c0 -48 -5.33301 -90.668 -16 -128.001s-29 -60 -55 -68s-70.5 10.667 -133.5 56s-120.5 97.333 -172.5 156s-120 101.5 -204 128.5s-171.667 32.333 -263 16s-177.666 -76.5 -258.999 -180.5s-128.5 -212 -141.5 -324s6.66699 -253.333 59 -424
s47 -184 -16 -40s-102.333 282.667 -118 416s0.166016 248 47.499 344s115.5 180.167 204.5 252.5s187.167 115 294.5 128s209.333 16.833 306 11.5s179 -26.666 247 -63.999s121.667 -81.333 161 -132s59 -100 59 -148zM1244.5 710.499
c18.333 -19 45.9971 -28.5 82.9971 -28.5s68.333 5.33301 94 16s35.834 -26.5 30.501 -111.5s-32.666 -174.333 -81.999 -268s-101.5 -163.167 -156.5 -208.5s-125.667 -74.666 -212 -87.999s-200.166 -14.5 -341.499 -3.5s-234.333 36.333 -279 76s-94.5 89 -149.5 148
s-106 132.5 -153 220.5s-41.833 94.5 15.5 19.5s120.166 -136.5 188.499 -184.5s145.666 -85.333 231.999 -112s174 -37.334 263 -32.001s168.833 28 239.5 68s124.334 100.167 161.001 180.5s52.334 156.5 47.001 228.5s1.16699 98.5 19.5 79.5zM1053 851.499
c-85.333 -34.333 -149.499 -65.0049 -192.499 -92.0049s-98.5 -40.5 -166.5 -40.5s-78.667 -8.66699 -32 -26s109.334 -14.833 188.001 7.5s162.667 38.333 252 48s160.666 4.83398 213.999 -14.499s74.666 -10.666 63.999 26.001s-3.5 68.334 21.5 95.001
s-5.5 41.334 -91.5 44.001s-171.667 -13.166 -257 -47.499z" />
    <glyph glyph-name="H" unicode="H" horiz-adv-x="1479" 
d="M129 1767c26 -21.333 81.9951 -18.6709 167.995 7.99609s107 -38.166 63 -194.499l-132.5 -484.5c-44.333 -166.667 -63.833 -308.167 -58.5 -424.5s27.5 -222.166 66.5 -317.499s75.333 -190.666 109 -285.999s19.334 -90 -42.999 16s-115.666 210.5 -159.999 313.5
s-69.166 227.333 -74.499 373s-0.166016 292.667 15.501 441s20.834 283.333 15.501 405s5 171.834 31 150.501zM1129.5 46.9951c31 8 89.667 5.33398 176 -7.99902s134.5 66 144.5 238s15 315 15 429s-10.167 234.5 -30.5 361.5s-61.833 262.167 -124.5 405.5
s-121.5 253.333 -176.5 330s-57.667 60.667 -8 -48s91.5 -219.834 125.5 -333.501s53.5 -239.334 58.5 -377.001s-2.83301 -270.167 -23.5 -397.5s-59.667 -261.166 -117 -401.499s-70.5 -206.5 -39.5 -198.5zM1223.5 996.496
c-10.333 -53 -13.0049 -113.998 -8.00488 -182.998s-25 -69 -90 0s-148.167 124.667 -249.5 167s-193.666 62.166 -276.999 59.499s-182.166 -42.334 -296.499 -119.001s-118.166 -66.167 -11.499 31.5s209.334 153.334 308.001 167.001s194.834 15.167 288.501 4.5
s175.667 -21.334 246 -32.001s100.333 -42.5 90 -95.5z" />
    <glyph glyph-name="I" unicode="I" horiz-adv-x="569" 
d="M301.5 1830c10.333 -32 33.0029 -54.8301 68.0029 -68.4971s84.167 -13.667 147.5 0s42.333 -22.5 -63 -108.5s-180.833 -171.833 -226.5 -257.5s-54.5 -172.834 -26.5 -261.501s68.333 -159.834 121 -213.501s100.167 -133.834 142.5 -240.501s51 -216.5 26 -329.5
s-76 -210.667 -153 -293s-87.333 -75.5 -31 20.5s86.166 197.5 89.499 304.5s-21.334 194.167 -74.001 261.5l-158.5 201.5c-53 67 -93.5 159.333 -121.5 277s-28 227.5 0 329.5s75.667 198.5 143 289.5s106.166 120.5 116.499 88.5z" />
    <glyph glyph-name="J" unicode="J" horiz-adv-x="1024" 
d="M736.5 1816c39 -18.667 91.665 -14.667 157.998 12s89 -14.5 68 -123.5s-34.5 -222.167 -40.5 -339.5s-1.5 -225.166 13.5 -323.499s33 -190.166 54 -275.499s25.5 -178.5 13.5 -279.5s-51.167 -187.5 -117.5 -259.5s-72.166 -68 -17.499 12s83.334 158.5 86.001 235.5
s-8 154.167 -32 231.5s-49.5 173.166 -76.5 287.499s-55.667 222.166 -86 323.499s-51.5 214.5 -63.5 339.5s1.5 178.167 40.5 159.5zM193.998 586.5c-3.33301 -39.667 10.168 -72.833 40.501 -99.5s29 -57.334 -4 -92.001s-39 -78.5 -18 -131.5s54.167 -94.333 99.5 -124
s96.666 -43.167 153.999 -40.5s108.5 9.5 153.5 20.5s108.167 58.833 189.5 143.5s84.333 75.334 9 -27.999s-146.166 -167 -212.499 -191s-147.833 -33.5 -244.5 -28.5s-170.334 30.333 -221.001 76s-86.667 114.834 -108 207.501s1.16699 173.667 67.5 243
s97.833 84.166 94.5 44.499z" />
    <glyph glyph-name="K" unicode="K" 
d="M107.5 1828.5c20.333 -32.333 65.166 -31 134.499 4s74.5 -18.833 15.5 -161.5s-98.667 -292 -119 -448s-29.166 -312.167 -26.499 -468.5s27 -329.833 73 -520.5s44.667 -220 -4 -88s-91 277.333 -127 436s-54 316 -54 472s12.833 332.167 38.5 528.5
s48.667 278.333 69 246zM212 1227.5c-12.667 -40.333 -21.666 -90.168 -26.999 -149.501s24 -76.833 88 -52.5s174 76.833 330 157.5s278.833 160 368.5 238s158.667 173.5 207 286.5s44.5 125.167 -11.5 36.5s-135.167 -170.667 -237.5 -246s-215 -130.666 -338 -165.999
s-213.833 -51.5 -272.5 -48.5s-94.334 -15.667 -107.001 -56zM1117.5 39.998c33 13.333 77.6689 8.16797 134.002 -15.499s80.666 0.666016 72.999 72.999s-48.667 170.5 -123 294.5s-162.5 230.333 -264.5 319s-250.333 153.167 -445 193.5s-238.167 43 -130.5 8
s201 -74 280 -117s154.5 -103.5 226.5 -181.5s120.667 -148 146 -210s40.666 -141.5 45.999 -238.5s24.5 -138.833 57.5 -125.5z" />
    <glyph glyph-name="L" unicode="L" horiz-adv-x="1139" 
d="M76.5 1836.5c25.667 -21 60.3311 -32.666 103.998 -34.999s89.834 10.834 138.501 39.501s50 -9.33301 4 -114s-83.167 -206.834 -111.5 -306.501s-51.5 -216.167 -69.5 -349.5s-25.667 -261.5 -23 -384.5s14.334 -238.167 35.001 -345.5s41.167 -193.833 61.5 -259.5
s12.666 -61.834 -23.001 11.499s-66.334 152 -92.001 236s-47.667 170.5 -66 259.5s-28.666 202.833 -30.999 341.5s6.83398 281.167 27.501 427.5s27 268 19 365s0.833008 135 26.5 114zM257.997 207.501c23.333 -23.667 33.502 -61.8311 30.502 -114.498
s22.5 -68.5 76.5 -47.5s109.167 38.167 165.5 51.5s116.666 8.16602 180.999 -15.501s128.5 -44.5 192.5 -62.5s122.833 -15.333 176.5 8s57.334 31 11.001 23s-95.166 -1.5 -146.499 19.5s-102.333 51.167 -153 90.5s-104.334 64.166 -161.001 74.499
s-138.834 14.333 -246.501 12s-149.834 -15.333 -126.501 -39z" />
    <glyph glyph-name="M" unicode="M" horiz-adv-x="1706" 
d="M62.5 1828.5c41.667 -16.333 101.334 -12.332 179.001 12.001s79 -40.334 4 -194.001s-116.5 -326.5 -124.5 -518.5s7.5 -383.833 46.5 -575.5s39 -340 0 -445s-49.333 -103.667 -31 4s5.33301 248 -39 421s-66.5 363.5 -66.5 571.5s2.66699 353.833 8 437.5
s0.166016 156.5 -15.501 218.5s-2.66699 84.833 39 68.5zM374 1743.5c0 -24.333 -15.666 -55.499 -46.999 -93.499s-18.5 -75.667 38.5 -113s112.667 -112.833 167 -226.5s101.166 -239.334 140.499 -377.001s52.333 -131 39 20s-42 284.5 -86 400.5s-97 216 -159 300
s-93 113.833 -93 89.5zM777.501 930.002c15.667 -48.667 17.1699 -104.168 4.50293 -166.501s21.166 -38 101.499 73s163.166 247.333 248.499 409s142.166 303.334 170.499 425.001s19.333 123 -27 4s-115 -242 -206 -369s-166.333 -209.167 -226 -246.5
s-81.667 -80.333 -66 -129zM1439 1808c5.33301 -46 -5.00391 -98.6641 -31.0039 -157.997s-20.833 -106.5 15.5 -141.5s64.833 -95.833 85.5 -182.5s41.334 -194.667 62.001 -324s25.834 -252 15.501 -368s-33.666 -234.833 -69.999 -356.5
s-66.166 -205.334 -89.499 -251.001s-11.666 -37.5 35.001 24.5s93.334 159.167 140.001 291.5s75.167 249.666 85.5 351.999s7.66602 215.666 -8.00098 339.999s-28.667 240.333 -39 348s-47.833 217 -112.5 328s-94.334 143.5 -89.001 97.5z" />
    <glyph glyph-name="N" unicode="N" horiz-adv-x="1479" 
d="M78 1833c30 -18.667 87.667 -14.501 173 12.499s97.833 -52.5 37.5 -238.5s-111.166 -412.5 -152.499 -679.5s-51 -496 -29 -687s9.66699 -196.333 -37 -16s-61.834 409.333 -45.501 687s21.833 505.334 16.5 683.001s7 257.167 37 238.5zM1087 42.499
c49.333 -27 93.332 -25.6689 131.999 3.99805s59.167 67.334 61.5 113.001s-32 100.834 -103 165.501s-162.833 159.167 -275.5 283.5s-200.667 263.166 -264 416.499s-114.166 327 -152.499 521s-60.333 247.833 -66 161.5s2.5 -202.166 24.5 -347.499
s56.5 -290.833 103.5 -436.5s136.333 -322.167 268 -529.5s222.167 -324.5 271.5 -351.5zM1264.5 1812.5c30.333 -21.667 75.668 -19.0029 136.001 7.99707s67 -43 20 -210s-81.5 -354.167 -103.5 -561.5s-12.167 -371.666 29.5 -492.999s72 -225.166 91 -311.499
s23 -153.666 12 -201.999s-17.833 -46.833 -20.5 4.5s-20.5 121.333 -53.5 210s-74.167 187 -123.5 295s-76.833 248.167 -82.5 420.5s1.16602 305.5 20.499 399.5s29 196.333 29 307s15.167 155.167 45.5 133.5z" />
    <glyph glyph-name="O" unicode="O" horiz-adv-x="1593" 
d="M12 1499.5c-8 -25.667 -5.33105 -58.8359 8.00195 -99.5029s39 -66.167 77 -76.5s84.333 17.667 139 84s113.167 121.5 175.5 165.5s139.666 72.333 231.999 85s190 20.334 293 23.001s191.333 -19.166 265 -65.499s125.334 -104 155.001 -173s58 -168.833 85 -299.5
s24.167 -251.167 -8.5 -361.5s-67.334 -200.166 -104.001 -269.499s-103.167 -146 -199.5 -230s-95.5 -95.333 2.5 -34s179.5 136.833 244.5 226.5s115.167 189.5 150.5 299.5s50.333 238 45 384s-31 266.333 -77 361s-112.5 174.167 -199.5 238.5s-193 96.5 -318 96.5
s-256.833 -14.167 -395.5 -42.5s-266.334 -81 -383.001 -158s-179 -128.333 -187 -154zM1386.5 309.998c-55.667 -97.333 -54.8281 -166.338 2.50488 -207.005s41 -66.334 -49 -77.001s-164.833 -17.334 -224.5 -20.001s-143.834 -2.66699 -252.501 0
s-202.334 18 -281.001 46s-139.667 58.667 -183 92s-89.5 71.833 -138.5 115.5s-95.167 104 -138.5 181s-74.5 160.167 -93.5 249.5s-24.5 176.333 -16.5 261s44.667 170.5 110 257.5s147.666 170.833 246.999 251.5s84.833 29.667 -43.5 -153s-192.333 -326.667 -192 -432
s13.333 -186.166 39 -242.499s72.5 -124.166 140.5 -203.499s137.167 -142.166 207.5 -188.499s142.333 -74.666 216 -84.999s146.667 -10.666 219 -0.999023s176.166 62.334 311.499 158.001s175.166 94.834 119.499 -2.49902z" />
    <glyph glyph-name="P" unicode="P" 
d="M89.5 1815c23.667 -16 72.6699 -13.334 147.003 7.99902s92.166 -29.834 53.499 -153.501s-68.5 -254.167 -89.5 -391.5s-29.833 -268.166 -26.5 -392.499s24.166 -255.166 62.499 -392.499s8.5 -268 -89.5 -392s-111.333 -124 -40 0s87.666 248 48.999 372
s-64 254.833 -76 392.5s-10.5 271 4.5 400s13.667 256.833 -4 383.5s-14.667 182 9 166zM383.503 1677.5c-35.667 -81 -2.8291 -101.333 98.5039 -61s193.666 60.5 276.999 60.5s166.5 -6.66699 249.5 -20s147 -45.5 192 -96.5s67.5 -107.667 67.5 -170
s-26.833 -135.166 -80.5 -218.499s-41.834 -83.333 35.499 0s119 154.666 125 213.999s-4.5 125.333 -31.5 198s-77.667 129.334 -152 170.001s-178.333 69.167 -312 85.5s-236.334 13.666 -308.001 -8.00098s-125.334 -73 -161.001 -154zM258.508 994.499
c11.667 -35 11.665 -74.1689 -0.00195312 -117.502s22.5 -66.333 102.5 -69s169.333 2.83301 268 16.5s189.5 39.334 272.5 77.001s144 94.334 183 170.001s33 85 -18 28s-115 -100.167 -192 -129.5s-157.167 -42.833 -240.5 -40.5s-169.666 22.5 -258.999 60.5
s-128.166 39.5 -116.499 4.5z" />
    <glyph glyph-name="Q" unicode="Q" horiz-adv-x="1593" 
d="M1333 1329.5c18 33.667 48.8281 53.0029 92.4951 58.0029s51.334 37 23.001 96s-83.666 125.667 -165.999 200s-169.833 120.666 -262.5 138.999s-193.167 27.5 -301.5 27.5s-211.5 -20.5 -309.5 -61.5s-179.167 -116.833 -243.5 -227.5s-108 -214.834 -131 -312.501
s-34.5 -208 -34.5 -331s15.5 -230.833 46.5 -323.5s37.333 -86.334 19 18.999s-18.333 222.333 0 351s51.833 246.834 100.5 354.501s113 191.167 193 250.5s163.833 96.5 251.5 111.5s171.334 18.667 251.001 11s147.834 -35.834 204.501 -84.501
s110.834 -115.5 162.501 -200.5s86.5 -110.667 104.5 -77zM1090 580.503c-3.33301 -44.333 -31.668 -81.5 -85.001 -111.5s-16.333 -73.333 111 -130s215.833 -137.167 265.5 -241.5s71 -235.166 64 -392.499s8.83301 -164.833 47.5 -22.5s56.334 260.166 53.001 353.499
s-36.833 185 -100.5 275s-138 168.5 -223 235.5s-129.167 78.333 -132.5 34zM1394.99 1267.5c23.333 13 50.333 32.335 81 58.002s52.5 -2.5 65.5 -84.5s16.833 -162.833 11.5 -242.5s-22.166 -159.334 -50.499 -239.001s-64.333 -156.834 -108 -231.501
s-51.334 -72 -23.001 8s47.5 166 57.5 258s12.667 167.667 8 227s-18.667 112 -42 158s-23.333 75.5 0 88.5zM1080.99 286.005c20.667 -36 48.999 -65.666 84.999 -88.999s23.167 -54.166 -38.5 -92.499s-150.5 -65.166 -266.5 -80.499s-219 -15.333 -309 0
s-163.333 44.666 -220 87.999s-99.167 101 -127.5 173s-51.5 175 -69.5 309s-10.333 139.167 23 15.5s69.333 -221.5 108 -293.5s104.334 -120.833 197.001 -146.5s185.5 -30.834 278.5 -15.501s167.667 50.166 224 104.499s94.833 63.5 115.5 27.5z" />
    <glyph glyph-name="R" unicode="R" horiz-adv-x="1479" 
d="M120 1826c38.667 10.667 78.5 17.168 119.5 19.501s81.833 -3 122.5 -16s40.667 -59.667 0 -140s-88 -193.833 -142 -340.5s-84.833 -313.334 -92.5 -500.001s7.66602 -386.5 45.999 -599.5s31.833 -238.5 -19.5 -76.5s-89.833 303 -115.5 423s-32 256.167 -19 408.5
s31 288.5 54 408.5s26.833 216.167 11.5 288.5s-3.66602 113.833 35.001 124.5zM447 1713c-30.667 -58.667 9.00098 -79.999 119.001 -63.999s211.167 20 303.5 12s166.833 -41.333 223.5 -100s90 -148 100 -268s2.33301 -198.667 -23 -236s-18.833 -37.333 19.5 0
s66.333 96 84 176s24 153.333 19 220s-42.167 138.667 -111.5 216s-138.5 124 -207.5 140s-166.333 18.667 -292 8s-203.834 -45.334 -234.501 -104.001zM184.501 969.002c-10.333 -64 6.5 -100 50.5 -108s112 -16 204 -24s184.167 -8 276.5 0s192.5 53.333 300.5 136
s111.833 97.334 11.5 44.001s-203 -81.333 -308 -84s-188.333 2.66602 -250 15.999s-122 36 -181 68s-93.667 16 -104 -48zM851.001 809.002c84.667 37.333 146.165 34.667 184.498 -8l157.5 -168c66.667 -69.333 118 -156 154 -260s68 -201.333 96 -292
s24 -100.167 -12 -28.5l-111.5 216c-38.333 72.333 -81.833 132.5 -130.5 180.5l-169.5 159.5c-64.333 58.333 -129.666 97 -195.999 116s-57.166 47.167 27.501 84.5z" />
    <glyph glyph-name="S" unicode="S" 
d="M1210 1197c-2 83.333 15.3369 143.003 52.0039 179.003s61.667 61.5 75 76.5s-1.16699 48.167 -43.5 99.5s-93.5 100 -153.5 146s-130.833 80.667 -212.5 104s-171.167 37.5 -268.5 42.5s-187.833 -4.16699 -271.5 -27.5s-155.834 -69.5 -216.501 -138.5
s-101.667 -143.167 -123 -222.5s-34.5 -161.333 -39.5 -246s7 -153.834 36 -207.501s77.667 -89.5 146 -107.5s141.833 -32 220.5 -42s158.834 -11.333 240.501 -4s176.667 -19.334 285 -80.001s112.166 -51.5 11.499 27.5s-175.834 118.5 -225.501 118.5
s-111.334 2.5 -185.001 7.5s-142.167 22.667 -205.5 53s-105.5 57.166 -126.5 80.499s-32.667 60.666 -35 111.999s-0.833008 102.666 4.5 153.999s19.666 101.166 42.999 149.499s64 90.5 122 126.5s127.667 60.333 209 73s164 8.83398 248 -11.499
s158.833 -56.166 224.5 -107.499s114 -144.166 145 -278.499s45.5 -159.833 43.5 -76.5zM84.0039 358.003c28.667 -126 16.167 -215.83 -37.5 -269.497s-6.33398 -79.334 141.999 -77.001l497.5 8c183.333 3 328.833 23.667 436.5 62s169.667 98.333 186 180
s21.833 178.834 16.5 291.501s-30.333 196 -75 250s-188.167 124 -430.5 210s-287 91.167 -134 15.5s261 -130.334 324 -164.001s106.5 -77.334 130.5 -131.001s37.167 -119 39.5 -196s-14.834 -144.833 -51.501 -203.5s-103.667 -99.5 -201 -122.5
s-178.666 -30.667 -243.999 -23l-279.5 34.5c-121 15.333 -211.667 73.166 -272 173.499s-76.166 87.5 -47.499 -38.5z" />
    <glyph glyph-name="T" unicode="T" horiz-adv-x="1251" 
d="M24 1752c-5.33301 -49.333 -10.6699 -102.831 -16.0029 -160.498s-4.16602 -107.334 3.50098 -149.001s39.334 -40.5 95.001 3.5s111.5 78.5 167.5 103.5s113.167 48.5 171.5 70.5s118 37.167 179 45.5s128.667 14 203 17s134 -2.5 179 -16.5s99.333 -44.333 163 -91
s75.5 -44 35.5 8s-77.167 93.167 -111.5 123.5s-84.5 59.166 -150.5 86.499s-133.667 42.5 -203 45.5s-130.5 4.5 -183.5 4.5s-120.5 -11 -202.5 -33s-156.167 -24.833 -222.5 -8.5s-102.166 -0.166992 -107.499 -49.5zM529.496 1541.5
c29 2.33301 80.6689 20.167 155.002 53.5s91.5 -2.33398 51.5 -107.001s-64 -194.167 -72 -268.5s-12 -148.666 -12 -222.999s6.66699 -130.666 20 -168.999s24 -87.833 32 -148.5s6.66699 -158.5 -4 -293.5s-31.834 -242.167 -63.501 -321.5s-38.334 -75 -20.001 13
s27.5 191.167 27.5 309.5s-9.16699 209 -27.5 272s-40.833 131.667 -67.5 206s-40 148.666 -40 222.999s-3.83301 168 -11.5 281s3 170.667 32 173z" />
    <glyph glyph-name="U" unicode="U" horiz-adv-x="1479" 
d="M154 1836c28.667 -24.667 82.498 -20.666 161.498 12.001s94.833 -17.333 47.5 -150s-93.333 -280 -138 -442s-69.667 -313.5 -75 -454.5s9.16699 -258.833 43.5 -353.5s105.333 -179.834 213 -255.501s224.834 -109.5 351.501 -101.5s151.834 -1.5 75.501 -28.5
s-151.333 -44.5 -225 -52.5s-150.167 4.16699 -229.5 36.5s-140 74.333 -182 126s-78.833 123.334 -110.5 215.001s-54 190.167 -67 295.5s-19.5 202.833 -19.5 292.5s9.16699 172.334 27.5 248.001s35.333 163.667 51 264s25 189.666 28 267.999
s18.833 105.166 47.5 80.499zM963.498 156.001c31.667 -19.333 42.332 -46.501 31.999 -81.501s-3.83301 -55.167 19.5 -60.5s78.5 19 165.5 73s151.5 113.667 193.5 179s65.667 139.833 71 223.5s8 181 8 292s-3.83301 224.667 -11.5 341s-26.167 205.5 -55.5 267.5
s-80.666 163.5 -153.999 304.5s-90.333 143.667 -51 8s73.5 -233.167 102.5 -292.5s48.5 -160.666 58.5 -303.999s11.333 -280 4 -410s-33.333 -226.667 -78 -290s-114.5 -116 -209.5 -158s-126.667 -72.667 -95 -92z" />
    <glyph glyph-name="V" unicode="V" 
d="M3.5 1722c-2.33301 44 17.668 82.5 60.001 115.5s79.333 -23.167 111 -168.5s83 -342.5 154 -591.5s143.5 -465.167 217.5 -648.5s141.333 -310.333 202 -381s46 -66.5 -44 12.5s-170.5 171.833 -241.5 278.5s-131.5 227 -181.5 361s-94.833 270.833 -134.5 410.5
s-72.834 265.5 -99.501 377.5s-41.167 190 -43.5 234zM1175 1792.5c39.333 -35.667 81.5029 -38.334 126.503 -8.00098s57 -16.167 36 -139.5s-58 -267.166 -111 -431.499l-170 -505c-60.333 -172.333 -126.333 -321.333 -198 -447s-78.334 -120.167 -20.001 16.5
s111.166 296.667 158.499 480s88.166 364 122.499 542s42.333 313.5 24 406.5s-7.83301 121.667 31.5 86z" />
    <glyph glyph-name="W" unicode="W" horiz-adv-x="1933" 
d="M134.5 1794c-5 -32.667 -28.6689 -63.8311 -71.002 -93.498s-54.666 -115.834 -36.999 -258.501s43.834 -272.167 78.501 -388.5s104.5 -274.166 209.5 -473.499s192.333 -327.5 262 -384.5l202 -166.5c65 -54 51.333 -18.667 -41 106s-156 227.667 -191 309
s-83.667 215.5 -146 402.5s-103.5 364.667 -123.5 533s-47.5 287.666 -82.5 357.999s-55 89.166 -60 56.499zM748.998 210.003c40 -65.333 91.168 -39.3311 153.501 78.002s104.666 258.166 126.999 422.499s31 274.166 26 329.499s-17.5 28 -37.5 -82
s-47.333 -209.333 -82 -298s-84.5 -169.5 -149.5 -242.5s-77.5 -142.167 -37.5 -207.5zM1097 961.505c-2.66699 -55 12.333 -101.998 45 -140.998s70.167 -88.5 112.5 -148.5s69.833 -129.167 82.5 -207.5s14 -178.833 4 -301.5s1.16699 -125.334 33.5 -8.00098
s43.5 231 33.5 341s-35 202.667 -75 278s-88.667 139.166 -146 191.499s-87.333 51 -90 -4zM1475 41.5068c40 5.66699 81.333 1.8252 124 -11.5078s84 32.334 124 137.001s76.167 228.334 108.5 371.001s52.166 293.334 59.499 452.001s8.5 313.334 3.5 464.001
s-34.833 262.334 -89.5 335.001s-64.667 66 -30 -20s52 -200.333 52 -343s-13.667 -277.167 -41 -403.5s-54.666 -240.666 -81.999 -342.999s-82.333 -235.666 -165 -399.999s-104 -243.666 -64 -237.999z" />
    <glyph glyph-name="X" unicode="X" horiz-adv-x="1408" 
d="M1165 1789c2.66699 -43.333 32.1689 -78.5 88.502 -105.5s15.166 -100 -123.501 -219s-265.667 -247.333 -381 -385s-224.5 -283.5 -327.5 -437.5s-192.833 -312 -269.5 -474s-89.334 -166 -38.001 -12s127 327 227 519s197.5 359.5 292.5 502.5s206.667 291.5 335 445.5
s193.833 209.333 196.5 166zM81.502 1675c35 44 63.333 92.999 85 146.999s32.5 30.833 32.5 -69.5s8.83301 -183.666 26.5 -249.999s43 -130 76 -191s76.667 -120.833 131 -179.5s51 -67.167 -10 -25.5s-110 93 -147 154l-105 172.5c-33 54 -64.833 96.833 -95.5 128.5
s-28.5 69.5 6.5 113.5zM733.502 986.499l-88.5 -121.002c-36 -48.333 -19.333 -83.333 50 -105s141.333 -53 216 -94s154.334 -120.833 239.001 -239.5s148.667 -232 192 -340s54.833 -106.667 34.5 4s-49.833 202.5 -88.5 275.5s-77.334 136.5 -116.001 190.5
s-88.667 118.833 -150 194.5s-119 141.834 -173 198.501s-92.5 68.834 -115.5 36.501z" />
    <glyph glyph-name="Y" unicode="Y" horiz-adv-x="1408" 
d="M1261.5 1782c3 -44 35.1641 -79.8311 96.4971 -107.498s16.666 -102.334 -134.001 -224.001s-288.667 -252.834 -414 -393.501s-243.666 -289.667 -354.999 -447s-208.666 -318.5 -291.999 -483.5s-97.166 -169 -41.499 -12s137.834 333.5 246.501 529.5
s214.5 367.167 317.5 513.5s224 298 363 455s210 213.5 213 169.5zM85.9971 1665.5c38 45 68.833 95 92.5 150s35.5 31.333 35.5 -71s9.5 -187.333 28.5 -255s46.333 -132.667 82 -195s83 -123.5 142 -183.5s55.333 -68.667 -11 -26s-119.5 95.167 -159.5 157.5l-113.5 176
c-35.667 55 -70.167 98.667 -103.5 131s-31 71 7 116z" />
    <glyph glyph-name="Z" unicode="Z" horiz-adv-x="1251" 
d="M84.5 1657c21 -38 17.168 -96.333 -11.499 -175s-2.66699 -91.5 78 -38.5s160.167 98.667 238.5 137s154 60 227 65s164.167 0 273.5 -15s192.666 -50.5 249.999 -106.5s67.833 -48.5 31.5 22.5s-74 121.833 -113 152.5s-106.667 61.167 -203 91.5s-178.5 48 -246.5 53
s-138.5 1.16699 -211.5 -11.5s-148.667 -35.5 -227 -68.5s-107 -68.5 -86 -106.5zM1085.5 1452c21 -32.667 51.168 -54.1689 90.501 -64.502s62.833 -15.5 70.5 -15.5s-29 -11.5 -110 -34.5s-169.667 -57.333 -266 -103s-178.333 -98.667 -246 -159
s-143.334 -143.833 -227.001 -250.5s-155.334 -215.667 -215.001 -327s-96.167 -215 -109.5 -311s-20 -88.5 -20 22.5s23.5 222.333 70.5 334s108.167 223.167 183.5 334.5s131.333 197.333 168 258s99.334 120.334 188.001 179.001s176 104.334 262 137.001
s139.5 32.667 160.5 0zM147.502 201.498c5 -30.333 -0.333008 -66.998 -16 -109.998s16.833 -40.5 97.5 7.5s160.167 76 238.5 84s173.666 10.667 285.999 8s248 -45.5 407 -128.5s169.333 -76.833 31 18.5s-251.833 159.666 -340.5 192.999s-172.167 51.166 -250.5 53.499
s-174.666 -10.5 -288.999 -38.5s-169 -57.167 -164 -87.5z" />
    <glyph glyph-name="bracketleft" unicode="[" horiz-adv-x="569" 
 />
    <glyph glyph-name="backslash" unicode="\" horiz-adv-x="555" 
d="M117.5 1300c143.667 -714 267.167 -1128.33 370.5 -1243s31.5 242.333 -215.5 1071s-298.667 886 -155 172z" />
    <glyph glyph-name="bracketright" unicode="]" horiz-adv-x="569" 
 />
    <glyph glyph-name="asciicircum" unicode="^" horiz-adv-x="1034" 
d="M301 1375.5c56.667 96.333 126.165 185.5 208.498 267.5s79.5 64 -8.5 -54s-156.667 -236 -206 -354s-80.666 -238 -93.999 -360s-52.5 -166.667 -117.5 -134s-59.167 122.5 17.5 269.5s143.334 268.667 200.001 365zM792.998 1255.5
c-33.333 92.333 -91.6689 197.335 -175.002 315.002s-67.333 114.667 48 -9s193.833 -244.834 235.5 -363.501s72.834 -228.5 93.501 -329.5s5.83398 -163 -44.499 -186s-80.833 43.667 -91.5 200s-32.667 280.666 -66 372.999z" />
    <glyph glyph-name="underscore" unicode="_" horiz-adv-x="1139" 
d="M41 171c12.667 -34.667 10.168 -74.499 -7.49902 -119.499s54.666 -51.167 216.999 -18.5s297.166 55.167 404.499 67.5s203.5 8.5 288.5 -11.5s83.833 -8.83301 -3.5 33.5s-198.5 63.5 -333.5 63.5s-266.167 6.16699 -393.5 18.5s-184.666 1.16602 -171.999 -33.501z
" />
    <glyph glyph-name="grave" unicode="`" horiz-adv-x="682" 
 />
    <glyph glyph-name="a" unicode="a" 
d="M414 1450c62.667 182 122.832 293.5 180.499 334.5s108.167 61.5 151.5 61.5s66.333 -20.5 69 -61.5s-72.166 -183.667 -224.499 -428s-275.833 -475 -370.5 -692s-155 -396.167 -181 -537.5s-36.167 -140 -30.5 4s59 354.333 160 631zM921.998 1666
c-17.333 -38 -46.0029 -70.667 -86.0029 -98s-9.83301 -85.666 90.5 -174.999s179.333 -220.833 237 -394.5s89.334 -357 95.001 -550s-1.66602 -324.667 -21.999 -395s-11.666 -64.833 26.001 16.5s60.667 221.166 69 419.499s-1.83398 387 -30.501 566
s-94.667 335 -198 468s-163.666 180.5 -180.999 142.5zM413.495 868.5c5.66699 -32.333 -8.5 -75.833 -42.5 -130.5s-2.33301 -56.167 95 -4.5s193.333 87 288 106s185.167 12.333 271.5 -20s92 -21.333 17 33s-154 81.5 -237 81.5s-170.5 -2.83301 -262.5 -8.5
s-135.167 -24.667 -129.5 -57z" />
    <glyph glyph-name="b" unicode="b" 
d="M140.5 1816c26.333 -32.667 68.333 -46.333 126 -41s57.667 -78.167 0 -250.5s-99.667 -350 -126 -533s-43.333 -355.167 -51 -516.5s0.333008 -285.833 24 -373.5s15.834 -86.334 -23.499 3.99902s-64.166 217.5 -74.499 381.5s-3.83301 349.833 19.5 557.5
s40.166 396.334 50.499 566.001s28.666 238.167 54.999 205.5zM411.5 1738.5c7.66699 -51.667 2.33008 -102.165 -16.0029 -151.498s9.16699 -60.333 82.5 -33s147.833 39.5 223.5 36.5s144.834 -37.333 207.501 -103s95.334 -138.167 98.001 -217.5
s-3.83301 -151.833 -19.5 -217.5s-45.667 -124.334 -90 -176.001s-91.5 -78.834 -141.5 -81.501s-110.167 4.16602 -180.5 20.499s-156.5 76.333 -258.5 180s-107.333 91.334 -16 -36.999s189.333 -203.5 294 -225.5s200.167 -17.833 286.5 12.5s149 70 188 119
s71.5 120 97.5 213s36.5 195.5 31.5 307.5s-33.667 206.333 -86 283s-136 128.667 -251 156s-220.667 32.833 -317 16.5s-140.666 -50.333 -132.999 -102zM1045.5 754.003c-44.333 -24.667 -47.0039 -68.5 -8.00391 -131.5s65.167 -125.833 78.5 -188.5
s7 -120.167 -19 -172.5s-71.667 -89.333 -137 -111s-134.666 -32.5 -207.999 -32.5s-141.333 2.66699 -204 8s-148.667 27.166 -258 65.499s-102.666 26.166 20.001 -36.501s245.334 -101 368.001 -115s229.667 -21 321 -21s168.5 24.667 231.5 74s99.667 131.5 110 246.5
s2.5 220.333 -23.5 316s-60 169.334 -102 221.001s-69.667 50.334 -83 -3.99902s-42.166 -93.833 -86.499 -118.5z" />
    <glyph glyph-name="c" unicode="c" horiz-adv-x="1479" 
d="M1343 1499c0 -48 -5.33301 -90.668 -16 -128.001s-29 -60 -55 -68s-70.5 10.667 -133.5 56s-120.5 97.333 -172.5 156s-120 101.5 -204 128.5s-171.667 32.333 -263 16s-177.666 -76.5 -258.999 -180.5s-128.5 -212 -141.5 -324s6.66699 -253.333 59 -424
s47 -184 -16 -40s-102.333 282.667 -118 416s0.166016 248 47.499 344s115.5 180.167 204.5 252.5s187.167 115 294.5 128s209.333 16.833 306 11.5s179 -26.666 247 -63.999s121.667 -81.333 161 -132s59 -100 59 -148zM1244.5 710.499
c18.333 -19 45.9971 -28.5 82.9971 -28.5s68.333 5.33301 94 16s35.834 -26.5 30.501 -111.5s-32.666 -174.333 -81.999 -268s-101.5 -163.167 -156.5 -208.5s-125.667 -74.666 -212 -87.999s-200.166 -14.5 -341.499 -3.5s-234.333 36.333 -279 76s-94.5 89 -149.5 148
s-106 132.5 -153 220.5s-41.833 94.5 15.5 19.5s120.166 -136.5 188.499 -184.5s145.666 -85.333 231.999 -112s174 -37.334 263 -32.001s168.833 28 239.5 68s124.334 100.167 161.001 180.5s52.334 156.5 47.001 228.5s1.16699 98.5 19.5 79.5z" />
    <glyph glyph-name="d" unicode="d" horiz-adv-x="1479" 
d="M86.5 1785.5c35 -20.333 72.3281 -18.9961 111.995 4.00391s43.334 -22.667 11.001 -137s-54.166 -229.333 -65.499 -345s-4.33301 -217.667 21 -306s45 -173.833 59 -256.5s16.833 -163.834 8.5 -243.501s-32.166 -165.834 -71.499 -258.501
s-74.5 -164.334 -105.5 -215.001s-29 -28.334 6 66.999s62.5 189.5 82.5 282.5s25.833 176.5 17.5 250.5s-30.166 133.333 -65.499 178s-58.666 104.667 -69.999 180s-18.5 156.333 -21.5 243s1.16699 206.167 12.5 358.5s34.5 218.333 69.5 198zM285.995 1703
c-24 -72.667 11.8291 -102.498 107.496 -89.498s201.334 14.5 317.001 4.5s208.167 -35.333 277.5 -76s135 -94.167 197 -160.5s107 -140.833 135 -223.5s35.833 -189.334 23.5 -320.001s-40.5 -240 -84.5 -328s-105.5 -158.833 -184.5 -212.5s-184 -115.334 -315 -185.001
s-264.833 -87.667 -401.5 -54s-133.167 26.5 10.5 -21.5s292.334 -43 446.001 15s263 111.5 328 160.5s132.833 143.833 203.5 284.5s108.667 301.5 114 482.5s-27.167 323.667 -97.5 428s-159.166 197.833 -266.499 280.5s-234.166 131.167 -380.499 145.5
s-248.5 14.333 -306.5 0s-99 -57.833 -123 -130.5z" />
    <glyph glyph-name="e" unicode="e" 
d="M66 1829.5c39.333 -18.333 88.833 -16.832 148.5 4.50098s68.667 -18.667 27 -120s-74.167 -246.5 -97.5 -435.5s-35 -355.167 -35 -498.5s15.667 -276.333 47 -399s63.833 -219.667 97.5 -291s24.5 -74 -27.5 -8s-96.333 164.167 -133 294.5
s-60.167 272.666 -70.5 426.999s-16.666 311.333 -18.999 471s-2.33301 296.667 0 411s23.166 162.333 62.499 144zM292.5 1657.5c-44.333 -90.333 -3.00098 -125 123.999 -104s254.167 39.5 381.5 55.5s254.5 13.333 381.5 -8s134.667 -11.833 23 28.5s-227 67 -346 80
s-231.667 30.167 -338 51.5s-181.666 -13.167 -225.999 -103.5zM1288.5 1019c-18.333 -48 -19.668 -106.5 -4.00098 -175.5s-28.333 -75.5 -132 -19.5s-212.667 92 -327 108s-216.833 24 -307.5 24s-175 -22.667 -253 -68s-81.833 -38.833 -11.5 19.5s152 96.833 245 115.5
s194.167 32 303.5 40s222.333 14.667 339 20s165.834 -16 147.501 -64zM307.497 102.001c28.333 -79.333 72.333 -99.166 132 -59.499s142.667 63.5 249 71.5s223.166 8 350.499 0s215.833 -33.333 265.5 -76s49.667 -33.334 0 27.999s-120 106.5 -211 135.5
s-189.667 47.5 -296 55.5s-221.666 4 -345.999 -12s-172.333 -63.667 -144 -143z" />
    <glyph glyph-name="f" unicode="f" horiz-adv-x="1251" 
d="M89 1824c33.333 8 72.001 15.9971 116.001 23.9971s71.167 -9.5 81.5 -52.5s-3.83398 -113.667 -42.501 -212s-71 -234.333 -97 -408s-41.5 -320.5 -46.5 -440.5s4.16699 -250.667 27.5 -392s42.666 -245.166 57.999 -311.499s-4.16699 -26.166 -58.5 120.501
s-89.166 289.334 -104.499 428.001s-20.5 286.5 -15.5 443.5s16.667 283.667 35 380s22.333 188.5 12 276.5s1.16699 136 34.5 144zM360.001 1695.5c2.66699 -45 -8.83301 -95.501 -34.5 -151.501s1.33301 -61.333 81 -16s176 70.666 289 75.999s210.667 8 293 8
s150.5 -10.667 204.5 -32s56.667 -14.666 8 20.001s-109.167 59.834 -181.5 75.501s-149.5 28.834 -231.5 39.501s-159.167 20.167 -231.5 28.5s-123.833 13.666 -154.5 15.999s-44.667 -19 -42 -64zM1201.5 1132c-18.333 -26.667 -22.333 -60 -12 -100s-32 -44 -127 -12
s-197.833 52 -308.5 60s-238.167 -2.66699 -382.5 -32s-145.833 -20 -4.5 28s253.333 78.667 336 92s191 17.333 325 12s191.833 -21.333 173.5 -48z" />
    <glyph glyph-name="g" unicode="g" horiz-adv-x="1479" 
d="M1343 1499c0 -48 -5.33301 -90.668 -16 -128.001s-29 -60 -55 -68s-70.5 10.667 -133.5 56s-120.5 97.333 -172.5 156s-120 101.5 -204 128.5s-171.667 32.333 -263 16s-177.666 -76.5 -258.999 -180.5s-128.5 -212 -141.5 -324s6.66699 -253.333 59 -424
s47 -184 -16 -40s-102.333 282.667 -118 416s0.166016 248 47.499 344s115.5 180.167 204.5 252.5s187.167 115 294.5 128s209.333 16.833 306 11.5s179 -26.666 247 -63.999s121.667 -81.333 161 -132s59 -100 59 -148zM1252.5 710.499
c18.333 -19 45.9971 -28.5 82.9971 -28.5s68.333 5.33301 94 16s35.834 -26.5 30.501 -111.5s-32.666 -174.333 -81.999 -268s-101.5 -163.167 -156.5 -208.5s-125.667 -74.666 -212 -87.999s-200.166 -14.5 -341.499 -3.5s-234.333 36.333 -279 76s-94.5 89 -149.5 148
s-106 132.5 -153 220.5s-41.833 94.5 15.5 19.5s120.166 -136.5 188.499 -184.5s145.666 -85.333 231.999 -112s174 -37.334 263 -32.001s168.833 28 239.5 68s124.334 100.167 161.001 180.5s52.334 156.5 47.001 228.5s1.16699 98.5 19.5 79.5zM1003 851.499
c-85.333 -34.333 -149.499 -65.0049 -192.499 -92.0049s-98.5 -40.5 -166.5 -40.5s-78.667 -8.66699 -32 -26s109.334 -14.833 188.001 7.5s162.667 38.333 252 48s160.666 4.83398 213.999 -14.499s74.666 -10.666 63.999 26.001s-3.5 68.334 21.5 95.001
s-5.5 41.334 -91.5 44.001s-171.667 -13.166 -257 -47.499z" />
    <glyph glyph-name="h" unicode="h" horiz-adv-x="1479" 
d="M129 1767c26 -21.333 81.9951 -18.6709 167.995 7.99609s107 -38.166 63 -194.499l-132.5 -484.5c-44.333 -166.667 -63.833 -308.167 -58.5 -424.5s27.5 -222.166 66.5 -317.499s75.333 -190.666 109 -285.999s19.334 -90 -42.999 16s-115.666 210.5 -159.999 313.5
s-69.166 227.333 -74.499 373s-0.166016 292.667 15.501 441s20.834 283.333 15.501 405s5 171.834 31 150.501zM1129.5 46.9951c31 8 89.667 5.33398 176 -7.99902s134.5 66 144.5 238s15 315 15 429s-10.167 234.5 -30.5 361.5s-61.833 262.167 -124.5 405.5
s-121.5 253.333 -176.5 330s-57.667 60.667 -8 -48s91.5 -219.834 125.5 -333.501s53.5 -239.334 58.5 -377.001s-2.83301 -270.167 -23.5 -397.5s-59.667 -261.166 -117 -401.499s-70.5 -206.5 -39.5 -198.5zM1223.5 996.496
c-10.333 -53 -13.0049 -113.998 -8.00488 -182.998s-25 -69 -90 0s-148.167 124.667 -249.5 167s-193.666 62.166 -276.999 59.499s-182.166 -42.334 -296.499 -119.001s-118.166 -66.167 -11.499 31.5s209.334 153.334 308.001 167.001s194.834 15.167 288.501 4.5
s175.667 -21.334 246 -32.001s100.333 -42.5 90 -95.5z" />
    <glyph glyph-name="i" unicode="i" horiz-adv-x="569" 
d="M301.5 1830c10.333 -32 33.0029 -54.8301 68.0029 -68.4971s84.167 -13.667 147.5 0s42.333 -22.5 -63 -108.5s-180.833 -171.833 -226.5 -257.5s-54.5 -172.834 -26.5 -261.501s68.333 -159.834 121 -213.501s100.167 -133.834 142.5 -240.501s51 -216.5 26 -329.5
s-76 -210.667 -153 -293s-87.333 -75.5 -31 20.5s86.166 197.5 89.499 304.5s-21.334 194.167 -74.001 261.5l-158.5 201.5c-53 67 -93.5 159.333 -121.5 277s-28 227.5 0 329.5s75.667 198.5 143 289.5s106.166 120.5 116.499 88.5z" />
    <glyph glyph-name="j" unicode="j" horiz-adv-x="1024" 
d="M736.5 1816c39 -18.667 91.665 -14.667 157.998 12s89 -14.5 68 -123.5s-34.5 -222.167 -40.5 -339.5s-1.5 -225.166 13.5 -323.499s33 -190.166 54 -275.499s25.5 -178.5 13.5 -279.5s-51.167 -187.5 -117.5 -259.5s-72.166 -68 -17.499 12s83.334 158.5 86.001 235.5
s-8 154.167 -32 231.5s-49.5 173.166 -76.5 287.499s-55.667 222.166 -86 323.499s-51.5 214.5 -63.5 339.5s1.5 178.167 40.5 159.5zM193.998 586.5c-3.33301 -39.667 10.168 -72.833 40.501 -99.5s29 -57.334 -4 -92.001s-39 -78.5 -18 -131.5s54.167 -94.333 99.5 -124
s96.666 -43.167 153.999 -40.5s108.5 9.5 153.5 20.5s108.167 58.833 189.5 143.5s84.333 75.334 9 -27.999s-146.166 -167 -212.499 -191s-147.833 -33.5 -244.5 -28.5s-170.334 30.333 -221.001 76s-86.667 114.834 -108 207.501s1.16699 173.667 67.5 243
s97.833 84.166 94.5 44.499z" />
    <glyph glyph-name="k" unicode="k" 
d="M107.5 1828.5c20.333 -32.333 65.166 -31 134.499 4s74.5 -18.833 15.5 -161.5s-98.667 -292 -119 -448s-29.166 -312.167 -26.499 -468.5s27 -329.833 73 -520.5s44.667 -220 -4 -88s-91 277.333 -127 436s-54 316 -54 472s12.833 332.167 38.5 528.5
s48.667 278.333 69 246zM212 1227.5c-12.667 -40.333 -21.666 -90.168 -26.999 -149.501s24 -76.833 88 -52.5s174 76.833 330 157.5s278.833 160 368.5 238s158.667 173.5 207 286.5s44.5 125.167 -11.5 36.5s-135.167 -170.667 -237.5 -246s-215 -130.666 -338 -165.999
s-213.833 -51.5 -272.5 -48.5s-94.334 -15.667 -107.001 -56zM1117.5 39.998c33 13.333 77.6689 8.16797 134.002 -15.499s80.666 0.666016 72.999 72.999s-48.667 170.5 -123 294.5s-162.5 230.333 -264.5 319s-250.333 153.167 -445 193.5s-238.167 43 -130.5 8
s201 -74 280 -117s154.5 -103.5 226.5 -181.5s120.667 -148 146 -210s40.666 -141.5 45.999 -238.5s24.5 -138.833 57.5 -125.5z" />
    <glyph glyph-name="l" unicode="l" horiz-adv-x="1139" 
d="M76.5 1836.5c25.667 -21 60.3311 -32.666 103.998 -34.999s89.834 10.834 138.501 39.501s50 -9.33301 4 -114s-83.167 -206.834 -111.5 -306.501s-51.5 -216.167 -69.5 -349.5s-25.667 -261.5 -23 -384.5s14.334 -238.167 35.001 -345.5s41.167 -193.833 61.5 -259.5
s12.666 -61.834 -23.001 11.499s-66.334 152 -92.001 236s-47.667 170.5 -66 259.5s-28.666 202.833 -30.999 341.5s6.83398 281.167 27.501 427.5s27 268 19 365s0.833008 135 26.5 114zM257.997 207.501c23.333 -23.667 33.502 -61.8311 30.502 -114.498
s22.5 -68.5 76.5 -47.5s109.167 38.167 165.5 51.5s116.666 8.16602 180.999 -15.501s128.5 -44.5 192.5 -62.5s122.833 -15.333 176.5 8s57.334 31 11.001 23s-95.166 -1.5 -146.499 19.5s-102.333 51.167 -153 90.5s-104.334 64.166 -161.001 74.499
s-138.834 14.333 -246.501 12s-149.834 -15.333 -126.501 -39z" />
    <glyph glyph-name="m" unicode="m" horiz-adv-x="1706" 
d="M62.5 1828.5c41.667 -16.333 101.334 -12.332 179.001 12.001s79 -40.334 4 -194.001s-116.5 -326.5 -124.5 -518.5s7.5 -383.833 46.5 -575.5s39 -340 0 -445s-49.333 -103.667 -31 4s5.33301 248 -39 421s-66.5 363.5 -66.5 571.5s2.66699 353.833 8 437.5
s0.166016 156.5 -15.501 218.5s-2.66699 84.833 39 68.5zM374 1743.5c0 -24.333 -15.666 -55.499 -46.999 -93.499s-18.5 -75.667 38.5 -113s112.667 -112.833 167 -226.5s101.166 -239.334 140.499 -377.001s52.333 -131 39 20s-42 284.5 -86 400.5s-97 216 -159 300
s-93 113.833 -93 89.5zM777.501 930.002c15.667 -48.667 17.1699 -104.168 4.50293 -166.501s21.166 -38 101.499 73s163.166 247.333 248.499 409s142.166 303.334 170.499 425.001s19.333 123 -27 4s-115 -242 -206 -369s-166.333 -209.167 -226 -246.5
s-81.667 -80.333 -66 -129zM1439 1808c5.33301 -46 -5.00391 -98.6641 -31.0039 -157.997s-20.833 -106.5 15.5 -141.5s64.833 -95.833 85.5 -182.5s41.334 -194.667 62.001 -324s25.834 -252 15.501 -368s-33.666 -234.833 -69.999 -356.5
s-66.166 -205.334 -89.499 -251.001s-11.666 -37.5 35.001 24.5s93.334 159.167 140.001 291.5s75.167 249.666 85.5 351.999s7.66602 215.666 -8.00098 339.999s-28.667 240.333 -39 348s-47.833 217 -112.5 328s-94.334 143.5 -89.001 97.5z" />
    <glyph glyph-name="n" unicode="n" horiz-adv-x="1479" 
d="M78 1833c30 -18.667 87.667 -14.501 173 12.499s97.833 -52.5 37.5 -238.5s-111.166 -412.5 -152.499 -679.5s-51 -496 -29 -687s9.66699 -196.333 -37 -16s-61.834 409.333 -45.501 687s21.833 505.334 16.5 683.001s7 257.167 37 238.5zM1087 42.499
c49.333 -27 93.332 -25.6689 131.999 3.99805s59.167 67.334 61.5 113.001s-32 100.834 -103 165.501s-162.833 159.167 -275.5 283.5s-200.667 263.166 -264 416.499s-114.166 327 -152.499 521s-60.333 247.833 -66 161.5s2.5 -202.166 24.5 -347.499
s56.5 -290.833 103.5 -436.5s136.333 -322.167 268 -529.5s222.167 -324.5 271.5 -351.5zM1264.5 1812.5c30.333 -21.667 75.668 -19.0029 136.001 7.99707s67 -43 20 -210s-81.5 -354.167 -103.5 -561.5s-12.167 -371.666 29.5 -492.999s72 -225.166 91 -311.499
s23 -153.666 12 -201.999s-17.833 -46.833 -20.5 4.5s-20.5 121.333 -53.5 210s-74.167 187 -123.5 295s-76.833 248.167 -82.5 420.5s1.16602 305.5 20.499 399.5s29 196.333 29 307s15.167 155.167 45.5 133.5z" />
    <glyph glyph-name="o" unicode="o" horiz-adv-x="1593" 
d="M12 1499.5c-8 -25.667 -5.33105 -58.8359 8.00195 -99.5029s39 -66.167 77 -76.5s84.333 17.667 139 84s113.167 121.5 175.5 165.5s139.666 72.333 231.999 85s190 20.334 293 23.001s191.333 -19.166 265 -65.499s125.334 -104 155.001 -173s58 -168.833 85 -299.5
s24.167 -251.167 -8.5 -361.5s-67.334 -200.166 -104.001 -269.499s-103.167 -146 -199.5 -230s-95.5 -95.333 2.5 -34s179.5 136.833 244.5 226.5s115.167 189.5 150.5 299.5s50.333 238 45 384s-31 266.333 -77 361s-112.5 174.167 -199.5 238.5s-193 96.5 -318 96.5
s-256.833 -14.167 -395.5 -42.5s-266.334 -81 -383.001 -158s-179 -128.333 -187 -154zM1386.5 309.998c-55.667 -97.333 -54.8281 -166.338 2.50488 -207.005s41 -66.334 -49 -77.001s-164.833 -17.334 -224.5 -20.001s-143.834 -2.66699 -252.501 0
s-202.334 18 -281.001 46s-139.667 58.667 -183 92s-89.5 71.833 -138.5 115.5s-95.167 104 -138.5 181s-74.5 160.167 -93.5 249.5s-24.5 176.333 -16.5 261s44.667 170.5 110 257.5s147.666 170.833 246.999 251.5s84.833 29.667 -43.5 -153s-192.333 -326.667 -192 -432
s13.333 -186.166 39 -242.499s72.5 -124.166 140.5 -203.499s137.167 -142.166 207.5 -188.499s142.333 -74.666 216 -84.999s146.667 -10.666 219 -0.999023s176.166 62.334 311.499 158.001s175.166 94.834 119.499 -2.49902z" />
    <glyph glyph-name="p" unicode="p" 
d="M89.5 1815c23.667 -16 72.6699 -13.334 147.003 7.99902s92.166 -29.834 53.499 -153.501s-68.5 -254.167 -89.5 -391.5s-29.833 -268.166 -26.5 -392.499s24.166 -255.166 62.499 -392.499s8.5 -268 -89.5 -392s-111.333 -124 -40 0s87.666 248 48.999 372
s-64 254.833 -76 392.5s-10.5 271 4.5 400s13.667 256.833 -4 383.5s-14.667 182 9 166zM383.503 1677.5c-35.667 -81 -2.8291 -101.333 98.5039 -61s193.666 60.5 276.999 60.5s166.5 -6.66699 249.5 -20s147 -45.5 192 -96.5s67.5 -107.667 67.5 -170
s-26.833 -135.166 -80.5 -218.499s-41.834 -83.333 35.499 0s119 154.666 125 213.999s-4.5 125.333 -31.5 198s-77.667 129.334 -152 170.001s-178.333 69.167 -312 85.5s-236.334 13.666 -308.001 -8.00098s-125.334 -73 -161.001 -154zM258.508 994.499
c11.667 -35 11.665 -74.1689 -0.00195312 -117.502s22.5 -66.333 102.5 -69s169.333 2.83301 268 16.5s189.5 39.334 272.5 77.001s144 94.334 183 170.001s33 85 -18 28s-115 -100.167 -192 -129.5s-157.167 -42.833 -240.5 -40.5s-169.666 22.5 -258.999 60.5
s-128.166 39.5 -116.499 4.5z" />
    <glyph glyph-name="q" unicode="q" horiz-adv-x="1593" 
d="M1333 1329.5c18 33.667 48.8281 53.0029 92.4951 58.0029s51.334 37 23.001 96s-83.666 125.667 -165.999 200s-169.833 120.666 -262.5 138.999s-193.167 27.5 -301.5 27.5s-211.5 -20.5 -309.5 -61.5s-179.167 -116.833 -243.5 -227.5s-108 -214.834 -131 -312.501
s-34.5 -208 -34.5 -331s15.5 -230.833 46.5 -323.5s37.333 -86.334 19 18.999s-18.333 222.333 0 351s51.833 246.834 100.5 354.501s113 191.167 193 250.5s163.833 96.5 251.5 111.5s171.334 18.667 251.001 11s147.834 -35.834 204.501 -84.501
s110.834 -115.5 162.501 -200.5s86.5 -110.667 104.5 -77zM1090 580.503c-3.33301 -44.333 -31.668 -81.5 -85.001 -111.5s-16.333 -73.333 111 -130s215.833 -137.167 265.5 -241.5s71 -235.166 64 -392.499s8.83301 -164.833 47.5 -22.5s56.334 260.166 53.001 353.499
s-36.833 185 -100.5 275s-138 168.5 -223 235.5s-129.167 78.333 -132.5 34zM1394.99 1267.5c23.333 13 50.333 32.335 81 58.002s52.5 -2.5 65.5 -84.5s16.833 -162.833 11.5 -242.5s-22.166 -159.334 -50.499 -239.001s-64.333 -156.834 -108 -231.501
s-51.334 -72 -23.001 8s47.5 166 57.5 258s12.667 167.667 8 227s-18.667 112 -42 158s-23.333 75.5 0 88.5zM1080.99 286.005c20.667 -36 48.999 -65.666 84.999 -88.999s23.167 -54.166 -38.5 -92.499s-150.5 -65.166 -266.5 -80.499s-219 -15.333 -309 0
s-163.333 44.666 -220 87.999s-99.167 101 -127.5 173s-51.5 175 -69.5 309s-10.333 139.167 23 15.5s69.333 -221.5 108 -293.5s104.334 -120.833 197.001 -146.5s185.5 -30.834 278.5 -15.501s167.667 50.166 224 104.499s94.833 63.5 115.5 27.5z" />
    <glyph glyph-name="r" unicode="r" horiz-adv-x="1479" 
d="M120 1826c38.667 10.667 78.5 17.168 119.5 19.501s81.833 -3 122.5 -16s40.667 -59.667 0 -140s-88 -193.833 -142 -340.5s-84.833 -313.334 -92.5 -500.001s7.66602 -386.5 45.999 -599.5s31.833 -238.5 -19.5 -76.5s-89.833 303 -115.5 423s-32 256.167 -19 408.5
s31 288.5 54 408.5s26.833 216.167 11.5 288.5s-3.66602 113.833 35.001 124.5zM447 1713c-30.667 -58.667 9.00098 -79.999 119.001 -63.999s211.167 20 303.5 12s166.833 -41.333 223.5 -100s90 -148 100 -268s2.33301 -198.667 -23 -236s-18.833 -37.333 19.5 0
s66.333 96 84 176s24 153.333 19 220s-42.167 138.667 -111.5 216s-138.5 124 -207.5 140s-166.333 18.667 -292 8s-203.834 -45.334 -234.501 -104.001zM184.501 969.002c-10.333 -64 6.5 -100 50.5 -108s112 -16 204 -24s184.167 -8 276.5 0s192.5 53.333 300.5 136
s111.833 97.334 11.5 44.001s-203 -81.333 -308 -84s-188.333 2.66602 -250 15.999s-122 36 -181 68s-93.667 16 -104 -48zM851.001 809.002c84.667 37.333 146.165 34.667 184.498 -8l157.5 -168c66.667 -69.333 118 -156 154 -260s68 -201.333 96 -292
s24 -100.167 -12 -28.5l-111.5 216c-38.333 72.333 -81.833 132.5 -130.5 180.5l-169.5 159.5c-64.333 58.333 -129.666 97 -195.999 116s-57.166 47.167 27.501 84.5z" />
    <glyph glyph-name="s" unicode="s" 
d="M1210 1197c-2 83.333 15.3369 143.003 52.0039 179.003s61.667 61.5 75 76.5s-1.16699 48.167 -43.5 99.5s-93.5 100 -153.5 146s-130.833 80.667 -212.5 104s-171.167 37.5 -268.5 42.5s-187.833 -4.16699 -271.5 -27.5s-155.834 -69.5 -216.501 -138.5
s-101.667 -143.167 -123 -222.5s-34.5 -161.333 -39.5 -246s7 -153.834 36 -207.501s77.667 -89.5 146 -107.5s141.833 -32 220.5 -42s158.834 -11.333 240.501 -4s176.667 -19.334 285 -80.001s112.166 -51.5 11.499 27.5s-175.834 118.5 -225.501 118.5
s-111.334 2.5 -185.001 7.5s-142.167 22.667 -205.5 53s-105.5 57.166 -126.5 80.499s-32.667 60.666 -35 111.999s-0.833008 102.666 4.5 153.999s19.666 101.166 42.999 149.499s64 90.5 122 126.5s127.667 60.333 209 73s164 8.83398 248 -11.499
s158.833 -56.166 224.5 -107.499s114 -144.166 145 -278.499s45.5 -159.833 43.5 -76.5zM84.0039 358.003c28.667 -126 16.167 -215.83 -37.5 -269.497s-6.33398 -79.334 141.999 -77.001l497.5 8c183.333 3 328.833 23.667 436.5 62s169.667 98.333 186 180
s21.833 178.834 16.5 291.501s-30.333 196 -75 250s-188.167 124 -430.5 210s-287 91.167 -134 15.5s261 -130.334 324 -164.001s106.5 -77.334 130.5 -131.001s37.167 -119 39.5 -196s-14.834 -144.833 -51.501 -203.5s-103.667 -99.5 -201 -122.5
s-178.666 -30.667 -243.999 -23l-279.5 34.5c-121 15.333 -211.667 73.166 -272 173.499s-76.166 87.5 -47.499 -38.5z" />
    <glyph glyph-name="t" unicode="t" horiz-adv-x="1251" 
d="M24 1752c-5.33301 -49.333 -10.6699 -102.831 -16.0029 -160.498s-4.16602 -107.334 3.50098 -149.001s39.334 -40.5 95.001 3.5s111.5 78.5 167.5 103.5s113.167 48.5 171.5 70.5s118 37.167 179 45.5s128.667 14 203 17s134 -2.5 179 -16.5s99.333 -44.333 163 -91
s75.5 -44 35.5 8s-77.167 93.167 -111.5 123.5s-84.5 59.166 -150.5 86.499s-133.667 42.5 -203 45.5s-130.5 4.5 -183.5 4.5s-120.5 -11 -202.5 -33s-156.167 -24.833 -222.5 -8.5s-102.166 -0.166992 -107.499 -49.5zM529.496 1541.5
c29 2.33301 80.6689 20.167 155.002 53.5s91.5 -2.33398 51.5 -107.001s-64 -194.167 -72 -268.5s-12 -148.666 -12 -222.999s6.66699 -130.666 20 -168.999s24 -87.833 32 -148.5s6.66699 -158.5 -4 -293.5s-31.834 -242.167 -63.501 -321.5s-38.334 -75 -20.001 13
s27.5 191.167 27.5 309.5s-9.16699 209 -27.5 272s-40.833 131.667 -67.5 206s-40 148.666 -40 222.999s-3.83301 168 -11.5 281s3 170.667 32 173z" />
    <glyph glyph-name="u" unicode="u" horiz-adv-x="1479" 
d="M154 1836c28.667 -24.667 82.498 -20.666 161.498 12.001s94.833 -17.333 47.5 -150s-93.333 -280 -138 -442s-69.667 -313.5 -75 -454.5s9.16699 -258.833 43.5 -353.5s105.333 -179.834 213 -255.501s224.834 -109.5 351.501 -101.5s151.834 -1.5 75.501 -28.5
s-151.333 -44.5 -225 -52.5s-150.167 4.16699 -229.5 36.5s-140 74.333 -182 126s-78.833 123.334 -110.5 215.001s-54 190.167 -67 295.5s-19.5 202.833 -19.5 292.5s9.16699 172.334 27.5 248.001s35.333 163.667 51 264s25 189.666 28 267.999
s18.833 105.166 47.5 80.499zM963.498 156.001c31.667 -19.333 42.332 -46.501 31.999 -81.501s-3.83301 -55.167 19.5 -60.5s78.5 19 165.5 73s151.5 113.667 193.5 179s65.667 139.833 71 223.5s8 181 8 292s-3.83301 224.667 -11.5 341s-26.167 205.5 -55.5 267.5
s-80.666 163.5 -153.999 304.5s-90.333 143.667 -51 8s73.5 -233.167 102.5 -292.5s48.5 -160.666 58.5 -303.999s11.333 -280 4 -410s-33.333 -226.667 -78 -290s-114.5 -116 -209.5 -158s-126.667 -72.667 -95 -92z" />
    <glyph glyph-name="v" unicode="v" 
d="M3.5 1722c-2.33301 44 17.668 82.5 60.001 115.5s79.333 -23.167 111 -168.5s83 -342.5 154 -591.5s143.5 -465.167 217.5 -648.5s141.333 -310.333 202 -381s46 -66.5 -44 12.5s-170.5 171.833 -241.5 278.5s-131.5 227 -181.5 361s-94.833 270.833 -134.5 410.5
s-72.834 265.5 -99.501 377.5s-41.167 190 -43.5 234zM1175 1792.5c39.333 -35.667 81.5029 -38.334 126.503 -8.00098s57 -16.167 36 -139.5s-58 -267.166 -111 -431.499l-170 -505c-60.333 -172.333 -126.333 -321.333 -198 -447s-78.334 -120.167 -20.001 16.5
s111.166 296.667 158.499 480s88.166 364 122.499 542s42.333 313.5 24 406.5s-7.83301 121.667 31.5 86z" />
    <glyph glyph-name="w" unicode="w" horiz-adv-x="1933" 
d="M134.5 1794c-5 -32.667 -28.6689 -63.8311 -71.002 -93.498s-54.666 -115.834 -36.999 -258.501s43.834 -272.167 78.501 -388.5s104.5 -274.166 209.5 -473.499s192.333 -327.5 262 -384.5l202 -166.5c65 -54 51.333 -18.667 -41 106s-156 227.667 -191 309
s-83.667 215.5 -146 402.5s-103.5 364.667 -123.5 533s-47.5 287.666 -82.5 357.999s-55 89.166 -60 56.499zM748.998 210.003c40 -65.333 91.168 -39.3311 153.501 78.002s104.666 258.166 126.999 422.499s31 274.166 26 329.499s-17.5 28 -37.5 -82
s-47.333 -209.333 -82 -298s-84.5 -169.5 -149.5 -242.5s-77.5 -142.167 -37.5 -207.5zM1097 961.505c-2.66699 -55 12.333 -101.998 45 -140.998s70.167 -88.5 112.5 -148.5s69.833 -129.167 82.5 -207.5s14 -178.833 4 -301.5s1.16699 -125.334 33.5 -8.00098
s43.5 231 33.5 341s-35 202.667 -75 278s-88.667 139.166 -146 191.499s-87.333 51 -90 -4zM1475 41.5068c40 5.66699 81.333 1.8252 124 -11.5078s84 32.334 124 137.001s76.167 228.334 108.5 371.001s52.166 293.334 59.499 452.001s8.5 313.334 3.5 464.001
s-34.833 262.334 -89.5 335.001s-64.667 66 -30 -20s52 -200.333 52 -343s-13.667 -277.167 -41 -403.5s-54.666 -240.666 -81.999 -342.999s-82.333 -235.666 -165 -399.999s-104 -243.666 -64 -237.999z" />
    <glyph glyph-name="x" unicode="x" horiz-adv-x="1408" 
d="M1165 1789c2.66699 -43.333 32.1689 -78.5 88.502 -105.5s15.166 -100 -123.501 -219s-265.667 -247.333 -381 -385s-224.5 -283.5 -327.5 -437.5s-192.833 -312 -269.5 -474s-89.334 -166 -38.001 -12s127 327 227 519s197.5 359.5 292.5 502.5s206.667 291.5 335 445.5
s193.833 209.333 196.5 166zM81.502 1675c35 44 63.333 92.999 85 146.999s32.5 30.833 32.5 -69.5s8.83301 -183.666 26.5 -249.999s43 -130 76 -191s76.667 -120.833 131 -179.5s51 -67.167 -10 -25.5s-110 93 -147 154l-105 172.5c-33 54 -64.833 96.833 -95.5 128.5
s-28.5 69.5 6.5 113.5zM733.502 986.499l-88.5 -121.002c-36 -48.333 -19.333 -83.333 50 -105s141.333 -53 216 -94s154.334 -120.833 239.001 -239.5s148.667 -232 192 -340s54.833 -106.667 34.5 4s-49.833 202.5 -88.5 275.5s-77.334 136.5 -116.001 190.5
s-88.667 118.833 -150 194.5s-119 141.834 -173 198.501s-92.5 68.834 -115.5 36.501z" />
    <glyph glyph-name="y" unicode="y" horiz-adv-x="1408" 
d="M1261.5 1782c3 -44 35.1641 -79.8311 96.4971 -107.498s16.666 -102.334 -134.001 -224.001s-288.667 -252.834 -414 -393.501s-243.666 -289.667 -354.999 -447s-208.666 -318.5 -291.999 -483.5s-97.166 -169 -41.499 -12s137.834 333.5 246.501 529.5
s214.5 367.167 317.5 513.5s224 298 363 455s210 213.5 213 169.5zM85.9971 1665.5c38 45 68.833 95 92.5 150s35.5 31.333 35.5 -71s9.5 -187.333 28.5 -255s46.333 -132.667 82 -195s83 -123.5 142 -183.5s55.333 -68.667 -11 -26s-119.5 95.167 -159.5 157.5l-113.5 176
c-35.667 55 -70.167 98.667 -103.5 131s-31 71 7 116z" />
    <glyph glyph-name="z" unicode="z" horiz-adv-x="1251" 
d="M84.5 1657c21 -38 17.168 -96.333 -11.499 -175s-2.66699 -91.5 78 -38.5s160.167 98.667 238.5 137s154 60 227 65s164.167 0 273.5 -15s192.666 -50.5 249.999 -106.5s67.833 -48.5 31.5 22.5s-74 121.833 -113 152.5s-106.667 61.167 -203 91.5s-178.5 48 -246.5 53
s-138.5 1.16699 -211.5 -11.5s-148.667 -35.5 -227 -68.5s-107 -68.5 -86 -106.5zM1085.5 1452c21 -32.667 51.168 -54.1689 90.501 -64.502s62.833 -15.5 70.5 -15.5s-29 -11.5 -110 -34.5s-169.667 -57.333 -266 -103s-178.333 -98.667 -246 -159
s-143.334 -143.833 -227.001 -250.5s-155.334 -215.667 -215.001 -327s-96.167 -215 -109.5 -311s-20 -88.5 -20 22.5s23.5 222.333 70.5 334s108.167 223.167 183.5 334.5s131.333 197.333 168 258s99.334 120.334 188.001 179.001s176 104.334 262 137.001
s139.5 32.667 160.5 0zM147.502 201.498c5 -30.333 -0.333008 -66.998 -16 -109.998s16.833 -40.5 97.5 7.5s160.167 76 238.5 84s173.666 10.667 285.999 8s248 -45.5 407 -128.5s169.333 -76.833 31 18.5s-251.833 159.666 -340.5 192.999s-172.167 51.166 -250.5 53.499
s-174.666 -10.5 -288.999 -38.5s-169 -57.167 -164 -87.5z" />
    <glyph glyph-name="braceleft" unicode="{" horiz-adv-x="684" 
 />
    <glyph glyph-name="bar" unicode="|" horiz-adv-x="532" 
 />
    <glyph glyph-name="braceright" unicode="}" horiz-adv-x="684" 
 />
    <glyph glyph-name="asciitilde" unicode="~" horiz-adv-x="1196" 
 />
    <glyph glyph-name=".null" horiz-adv-x="0" 
 />
    <glyph glyph-name="nonmarkingreturn" horiz-adv-x="569" 
 />
  </font>
</defs>
</svg>
